<svg xmlns="http://www.w3.org/2000/svg" viewBox="0 0 450 383.7"><defs><style>.cls-1{isolation:isolate;}.cls-2{fill:#b7e1ea;}.cls-3{opacity:0.15;}.cls-15,.cls-17,.cls-3,.cls-6{mix-blend-mode:multiply;}.cls-4{fill:#ffc200;}.cls-5{fill:#89d425;}.cls-6{opacity:0.3;}.cls-7{fill:#5a351f;}.cls-8{fill:#58595b;}.cls-9{fill:#f46425;}.cls-10{fill:#bcbec0;}.cls-11{fill:#939598;}.cls-12{fill:#4ec3cc;}.cls-13{fill:#fff;}.cls-14{fill:#4f2510;}.cls-15{opacity:0.1;}.cls-16{fill:#804423;}.cls-17{opacity:0.2;}.cls-18{fill:#252626;}.cls-19{fill:#755138;}.cls-20{fill:#b38867;}.cls-21{fill:#d8b49c;}.cls-22{fill:#96e8ea;}.cls-23{fill:#816622;}.cls-24{fill:#f8cc5b;}.cls-25{fill:#a8863b;}.cls-26{fill:#fde8e7;}.cls-27{fill:#ea6a6a;}.cls-28{fill:#3c5638;}.cls-29{fill:#85ba80;}.cls-30{fill:#6a8767;}.cls-31{fill:#bee2ba;}.cls-32{fill:#1b2818;}.cls-33{fill:#ff9;}.cls-34{fill:#166872;}</style></defs><title>day-01</title><g class="cls-1"><g id="Layer_3" data-name="Layer 3"><rect class="cls-2" width="450" height="383.7"/><g class="cls-3"><polygon points="391.33 290.06 391.33 238.84 376.73 224.51 363.2 224.51 363.2 287.58 391.33 290.06"/><rect x="306.14" y="213.61" width="51.91" height="77.39"/><rect x="317.29" y="247.1" width="51.91" height="43.9"/><rect x="244.9" y="170.21" width="58.62" height="123.06"/><rect x="244.9" y="149.75" width="27.64" height="117.42"/><rect x="141.59" y="176.88" width="35.08" height="116.39"/><rect x="205.11" y="189.9" width="35.08" height="103.38"/><rect x="58.67" y="228.55" width="50.92" height="62.82"/><rect x="65.68" y="207.23" width="36.91" height="62.82"/><polygon points="73.86 256.75 94.41 256.75 94.41 193.94 84.13 181.33 73.86 193.94 73.86 256.75"/><ellipse cx="221.52" cy="187.09" rx="10.4" ry="10.21"/></g><circle class="cls-4" cx="149.88" cy="110.91" r="22.76"/><polygon class="cls-5" points="358.66 291 355.08 285.3 357.49 285.3 353.91 279.6 355.59 279.6 352.18 274.17 353.77 274.17 350.93 269.65 352.52 269.65 348.77 263.68 345.02 269.65 346.61 269.65 343.77 274.17 345.36 274.17 341.95 279.6 343.63 279.6 340.05 285.3 342.46 285.3 338.88 291 358.66 291"/><g class="cls-6"><polygon points="358.66 291 355.08 285.3 357.49 285.3 353.91 279.6 355.59 279.6 352.18 274.17 353.77 274.17 350.93 269.65 352.52 269.65 348.77 263.68 348.77 291 358.66 291"/></g><circle class="cls-5" cx="69.77" cy="272.17" r="8.49"/><g class="cls-6"><path d="M78.26,272.17a8.49,8.49,0,0,0-8.49-8.49v17A8.49,8.49,0,0,0,78.26,272.17Z"/></g><rect class="cls-7" x="68.92" y="269.78" width="1.7" height="21.22"/><polygon class="cls-7" points="69.77 280.52 64.89 275.19 65.51 274.61 68.92 278.33 68.92 276.04 73.52 271.86 74.09 272.49 69.77 276.42 69.77 280.52"/><circle class="cls-5" cx="375.75" cy="264.42" r="14.4" transform="translate(-76.92 343.14) rotate(-45)"/><g class="cls-6"><path d="M390.14,264.42A14.39,14.39,0,0,0,375.75,250v28.79A14.4,14.4,0,0,0,390.14,264.42Z"/></g><rect class="cls-7" x="374.67" y="260.82" width="2.16" height="30.18"/><polygon class="cls-7" points="375.03 278.55 375.03 271.61 368.04 264.94 369.03 263.9 376.46 271 376.46 274.91 382.43 268.56 383.48 269.54 375.03 278.55"/><rect class="cls-5" x="42.9" y="286.45" width="364.2" height="4.55"/><rect class="cls-8" x="42.9" y="291" width="364.2" height="4.55"/><rect class="cls-9" x="106.63" y="213.61" width="59.18" height="77.39"/><rect class="cls-10" x="106.63" y="257.99" width="59.18" height="33.01"/><rect class="cls-11" x="106.63" y="280.76" width="59.18" height="10.24"/><path class="cls-8" d="M133.46,261.41H139a9.19,9.19,0,0,1,9.19,9.19V291a0,0,0,0,1,0,0h-23.9a0,0,0,0,1,0,0v-20.4A9.19,9.19,0,0,1,133.46,261.41Z"/><path class="cls-12" d="M161.26,234.09h-9.1v-9.26a4.4,4.4,0,0,1,4.4-4.4h.31a4.39,4.39,0,0,1,4.39,4.4Z"/><path class="cls-13" d="M161.55,234.38h-9.67v-9.55a4.68,4.68,0,0,1,4.68-4.68h.31a4.69,4.69,0,0,1,4.68,4.68Zm-9.11-.57H161v-9a4.11,4.11,0,0,0-4.11-4.11h-.31a4.12,4.12,0,0,0-4.12,4.11Z"/><rect class="cls-13" x="152.16" y="224.7" width="9.11" height="0.57"/><rect class="cls-13" x="152.16" y="229.26" width="9.11" height="0.57"/><rect class="cls-13" x="156.43" y="220.43" width="0.57" height="13.66"/><path class="cls-12" d="M147.61,234.09H138.5v-9.26a4.4,4.4,0,0,1,4.4-4.4h.31a4.4,4.4,0,0,1,4.4,4.4Z"/><path class="cls-13" d="M147.89,234.38h-9.67v-9.55a4.69,4.69,0,0,1,4.68-4.68h.31a4.69,4.69,0,0,1,4.68,4.68Zm-9.1-.57h8.53v-9a4.11,4.11,0,0,0-4.11-4.11h-.31a4.11,4.11,0,0,0-4.11,4.11Z"/><rect class="cls-13" x="138.5" y="224.7" width="9.11" height="0.57"/><rect class="cls-13" x="138.5" y="229.26" width="9.11" height="0.57"/><rect class="cls-13" x="142.77" y="220.43" width="0.57" height="13.66"/><path class="cls-12" d="M119.72,234.09h-9.1v-9.26a4.4,4.4,0,0,1,4.39-4.4h.32a4.39,4.39,0,0,1,4.39,4.4Z"/><path class="cls-13" d="M120,234.38h-9.68v-9.55a4.69,4.69,0,0,1,4.68-4.68h.32a4.69,4.69,0,0,1,4.68,4.68Zm-9.11-.57h8.54v-9a4.12,4.12,0,0,0-4.11-4.11H115a4.12,4.12,0,0,0-4.11,4.11Z"/><rect class="cls-13" x="110.62" y="224.7" width="9.11" height="0.57"/><rect class="cls-13" x="110.62" y="229.26" width="9.11" height="0.57"/><rect class="cls-13" x="114.89" y="220.43" width="0.57" height="13.66"/><path class="cls-12" d="M134,234.09h-9.11v-9.26a4.4,4.4,0,0,1,4.4-4.4h.31a4.4,4.4,0,0,1,4.4,4.4Z"/><path class="cls-13" d="M134.23,234.38h-9.67v-9.55a4.69,4.69,0,0,1,4.68-4.68h.31a4.69,4.69,0,0,1,4.68,4.68Zm-9.1-.57h8.54v-9a4.12,4.12,0,0,0-4.12-4.11h-.31a4.11,4.11,0,0,0-4.11,4.11Z"/><rect class="cls-13" x="124.84" y="224.7" width="9.11" height="0.57"/><rect class="cls-13" x="124.84" y="229.26" width="9.11" height="0.57"/><rect class="cls-13" x="129.11" y="220.43" width="0.57" height="13.66"/><rect class="cls-12" x="110.62" y="240.92" width="9.11" height="13.66"/><path class="cls-13" d="M120,254.86h-9.68V240.64H120Zm-9.11-.57h8.54V241.21H110.9Z"/><rect class="cls-13" x="110.62" y="245.19" width="9.11" height="0.57"/><rect class="cls-13" x="110.62" y="249.74" width="9.11" height="0.57"/><rect class="cls-13" x="114.89" y="240.92" width="0.57" height="13.66"/><rect class="cls-12" x="124.84" y="240.92" width="9.11" height="13.66"/><path class="cls-13" d="M134.23,254.86h-9.67V240.64h9.67Zm-9.1-.57h8.54V241.21h-8.54Z"/><rect class="cls-13" x="124.84" y="245.19" width="9.11" height="0.57"/><rect class="cls-13" x="124.84" y="249.74" width="9.11" height="0.57"/><rect class="cls-13" x="129.11" y="240.92" width="0.57" height="13.66"/><rect class="cls-12" x="152.16" y="240.92" width="9.11" height="13.66"/><path class="cls-13" d="M161.55,254.86h-9.67V240.64h9.67Zm-9.11-.57H161V241.21h-8.54Z"/><rect class="cls-13" x="152.16" y="245.19" width="9.11" height="0.57"/><rect class="cls-13" x="152.16" y="249.74" width="9.11" height="0.57"/><rect class="cls-13" x="156.43" y="240.92" width="0.57" height="13.66"/><rect class="cls-12" x="138.5" y="240.92" width="9.11" height="13.66"/><path class="cls-13" d="M147.89,254.86h-9.67V240.64h9.67Zm-9.1-.57h8.53V241.21h-8.53Z"/><rect class="cls-13" x="138.5" y="245.19" width="9.11" height="0.57"/><rect class="cls-13" x="138.5" y="249.74" width="9.11" height="0.57"/><rect class="cls-13" x="142.77" y="240.92" width="0.57" height="13.66"/><rect class="cls-12" x="110.62" y="261.41" width="9.11" height="13.66"/><path class="cls-13" d="M120,275.35h-9.68V261.12H120Zm-9.11-.57h8.54V261.69H110.9Z"/><rect class="cls-13" x="110.62" y="265.68" width="9.11" height="0.57"/><rect class="cls-13" x="110.62" y="270.23" width="9.11" height="0.57"/><rect class="cls-13" x="114.89" y="261.41" width="0.57" height="13.66"/><rect class="cls-12" x="152.16" y="261.41" width="9.11" height="13.66"/><path class="cls-13" d="M161.55,275.35h-9.67V261.12h9.67Zm-9.11-.57H161V261.69h-8.54Z"/><rect class="cls-13" x="152.16" y="265.68" width="9.11" height="0.57"/><rect class="cls-13" x="152.16" y="270.23" width="9.11" height="0.57"/><rect class="cls-13" x="156.43" y="261.41" width="0.57" height="13.66"/><rect class="cls-14" x="106.63" y="189.71" width="59.18" height="23.9"/><g class="cls-15"><polygon points="165.82 213.61 106.64 213.61 165.82 272.79 165.82 213.61"/></g><path class="cls-16" d="M108.91,193.12c-.94,0-1.71-.51-1.71-1.14v4.55c0,.63.77,1.14,1.71,1.14s1.71-.51,1.71-1.14V192C110.62,192.61,109.85,193.12,108.91,193.12Z"/><path class="cls-16" d="M108.91,198.81c-.94,0-1.71-.51-1.71-1.14v4.55c0,.63.77,1.14,1.71,1.14s1.71-.51,1.71-1.14v-4.55C110.62,198.3,109.85,198.81,108.91,198.81Z"/><path class="cls-16" d="M108.91,204.5c-.94,0-1.71-.51-1.71-1.14v4.56c0,.62.77,1.13,1.71,1.13s1.71-.51,1.71-1.13v-4.56C110.62,204,109.85,204.5,108.91,204.5Z"/><path class="cls-16" d="M108.91,210.19c-.94,0-1.71-.51-1.71-1.14v4.56c0,.62.77,1.13,1.71,1.13s1.71-.51,1.71-1.13v-4.56C110.62,209.68,109.85,210.19,108.91,210.19Z"/><path class="cls-16" d="M113.46,193.12c-.94,0-1.7-.51-1.7-1.14v4.55c0,.63.76,1.14,1.7,1.14s1.71-.51,1.71-1.14V192C115.17,192.61,114.41,193.12,113.46,193.12Z"/><path class="cls-16" d="M113.46,198.81c-.94,0-1.7-.51-1.7-1.14v4.55c0,.63.76,1.14,1.7,1.14s1.71-.51,1.71-1.14v-4.55C115.17,198.3,114.41,198.81,113.46,198.81Z"/><path class="cls-16" d="M113.46,204.5c-.94,0-1.7-.51-1.7-1.14v4.56c0,.62.76,1.13,1.7,1.13s1.71-.51,1.71-1.13v-4.56C115.17,204,114.41,204.5,113.46,204.5Z"/><path class="cls-16" d="M113.46,210.19c-.94,0-1.7-.51-1.7-1.14v4.56c0,.62.76,1.13,1.7,1.13s1.71-.51,1.71-1.13v-4.56C115.17,209.68,114.41,210.19,113.46,210.19Z"/><path class="cls-16" d="M118,193.12c-1,0-1.71-.51-1.71-1.14v4.55c0,.63.76,1.14,1.71,1.14s1.7-.51,1.7-1.14V192C119.72,192.61,119,193.12,118,193.12Z"/><path class="cls-16" d="M118,198.81c-1,0-1.71-.51-1.71-1.14v4.55c0,.63.76,1.14,1.71,1.14s1.7-.51,1.7-1.14v-4.55C119.72,198.3,119,198.81,118,198.81Z"/><path class="cls-16" d="M118,204.5c-1,0-1.71-.51-1.71-1.14v4.56c0,.62.76,1.13,1.71,1.13s1.7-.51,1.7-1.13v-4.56C119.72,204,119,204.5,118,204.5Z"/><path class="cls-16" d="M118,210.19c-1,0-1.71-.51-1.71-1.14v4.56c0,.62.76,1.13,1.71,1.13s1.7-.51,1.7-1.13v-4.56C119.72,209.68,119,210.19,118,210.19Z"/><path class="cls-16" d="M122.57,193.12c-.94,0-1.71-.51-1.71-1.14v4.55c0,.63.77,1.14,1.71,1.14s1.71-.51,1.71-1.14V192C124.28,192.61,123.51,193.12,122.57,193.12Z"/><path class="cls-16" d="M122.57,198.81c-.94,0-1.71-.51-1.71-1.14v4.55c0,.63.77,1.14,1.71,1.14s1.71-.51,1.71-1.14v-4.55C124.28,198.3,123.51,198.81,122.57,198.81Z"/><path class="cls-16" d="M122.57,204.5c-.94,0-1.71-.51-1.71-1.14v4.56c0,.62.77,1.13,1.71,1.13s1.71-.51,1.71-1.13v-4.56C124.28,204,123.51,204.5,122.57,204.5Z"/><path class="cls-16" d="M122.57,210.19c-.94,0-1.71-.51-1.71-1.14v4.56c0,.62.77,1.13,1.71,1.13s1.71-.51,1.71-1.13v-4.56C124.28,209.68,123.51,210.19,122.57,210.19Z"/><path class="cls-16" d="M127.12,193.12c-.94,0-1.71-.51-1.71-1.14v4.55c0,.63.77,1.14,1.71,1.14s1.71-.51,1.71-1.14V192C128.83,192.61,128.06,193.12,127.12,193.12Z"/><path class="cls-16" d="M127.12,198.81c-.94,0-1.71-.51-1.71-1.14v4.55c0,.63.77,1.14,1.71,1.14s1.71-.51,1.71-1.14v-4.55C128.83,198.3,128.06,198.81,127.12,198.81Z"/><path class="cls-16" d="M127.12,204.5c-.94,0-1.71-.51-1.71-1.14v4.56c0,.62.77,1.13,1.71,1.13s1.71-.51,1.71-1.13v-4.56C128.83,204,128.06,204.5,127.12,204.5Z"/><path class="cls-16" d="M127.12,210.19c-.94,0-1.71-.51-1.71-1.14v4.56c0,.62.77,1.13,1.71,1.13s1.71-.51,1.71-1.13v-4.56C128.83,209.68,128.06,210.19,127.12,210.19Z"/><path class="cls-16" d="M131.67,193.12c-.94,0-1.7-.51-1.7-1.14v4.55c0,.63.76,1.14,1.7,1.14s1.71-.51,1.71-1.14V192C133.38,192.61,132.62,193.12,131.67,193.12Z"/><path class="cls-16" d="M131.67,198.81c-.94,0-1.7-.51-1.7-1.14v4.55c0,.63.76,1.14,1.7,1.14s1.71-.51,1.71-1.14v-4.55C133.38,198.3,132.62,198.81,131.67,198.81Z"/><path class="cls-16" d="M131.67,204.5c-.94,0-1.7-.51-1.7-1.14v4.56c0,.62.76,1.13,1.7,1.13s1.71-.51,1.71-1.13v-4.56C133.38,204,132.62,204.5,131.67,204.5Z"/><path class="cls-16" d="M131.67,210.19c-.94,0-1.7-.51-1.7-1.14v4.56c0,.62.76,1.13,1.7,1.13s1.71-.51,1.71-1.13v-4.56C133.38,209.68,132.62,210.19,131.67,210.19Z"/><path class="cls-16" d="M136.23,193.12c-.95,0-1.71-.51-1.71-1.14v4.55c0,.63.76,1.14,1.71,1.14s1.7-.51,1.7-1.14V192C137.93,192.61,137.17,193.12,136.23,193.12Z"/><path class="cls-16" d="M136.23,198.81c-.95,0-1.71-.51-1.71-1.14v4.55c0,.63.76,1.14,1.71,1.14s1.7-.51,1.7-1.14v-4.55C137.93,198.3,137.17,198.81,136.23,198.81Z"/><path class="cls-16" d="M136.23,204.5c-.95,0-1.71-.51-1.71-1.14v4.56c0,.62.76,1.13,1.71,1.13s1.7-.51,1.7-1.13v-4.56C137.93,204,137.17,204.5,136.23,204.5Z"/><path class="cls-16" d="M136.23,210.19c-.95,0-1.71-.51-1.71-1.14v4.56c0,.62.76,1.13,1.71,1.13s1.7-.51,1.7-1.13v-4.56C137.93,209.68,137.17,210.19,136.23,210.19Z"/><path class="cls-16" d="M140.78,193.12c-.94,0-1.71-.51-1.71-1.14v4.55c0,.63.77,1.14,1.71,1.14s1.71-.51,1.71-1.14V192C142.49,192.61,141.72,193.12,140.78,193.12Z"/><path class="cls-16" d="M140.78,198.81c-.94,0-1.71-.51-1.71-1.14v4.55c0,.63.77,1.14,1.71,1.14s1.71-.51,1.71-1.14v-4.55C142.49,198.3,141.72,198.81,140.78,198.81Z"/><path class="cls-16" d="M140.78,204.5c-.94,0-1.71-.51-1.71-1.14v4.56c0,.62.77,1.13,1.71,1.13s1.71-.51,1.71-1.13v-4.56C142.49,204,141.72,204.5,140.78,204.5Z"/><path class="cls-16" d="M140.78,210.19c-.94,0-1.71-.51-1.71-1.14v4.56c0,.62.77,1.13,1.71,1.13s1.71-.51,1.71-1.13v-4.56C142.49,209.68,141.72,210.19,140.78,210.19Z"/><path class="cls-16" d="M145.33,193.12c-.94,0-1.71-.51-1.71-1.14v4.55c0,.63.77,1.14,1.71,1.14s1.71-.51,1.71-1.14V192C147,192.61,146.27,193.12,145.33,193.12Z"/><path class="cls-16" d="M145.33,198.81c-.94,0-1.71-.51-1.71-1.14v4.55c0,.63.77,1.14,1.71,1.14s1.71-.51,1.71-1.14v-4.55C147,198.3,146.27,198.81,145.33,198.81Z"/><path class="cls-16" d="M145.33,204.5c-.94,0-1.71-.51-1.71-1.14v4.56c0,.62.77,1.13,1.71,1.13s1.71-.51,1.71-1.13v-4.56C147,204,146.27,204.5,145.33,204.5Z"/><path class="cls-16" d="M145.33,210.19c-.94,0-1.71-.51-1.71-1.14v4.56c0,.62.77,1.13,1.71,1.13s1.71-.51,1.71-1.13v-4.56C147,209.68,146.27,210.19,145.33,210.19Z"/><path class="cls-16" d="M149.88,193.12c-.94,0-1.7-.51-1.7-1.14v4.55c0,.63.76,1.14,1.7,1.14s1.71-.51,1.71-1.14V192C151.59,192.61,150.83,193.12,149.88,193.12Z"/><path class="cls-16" d="M149.88,198.81c-.94,0-1.7-.51-1.7-1.14v4.55c0,.63.76,1.14,1.7,1.14s1.71-.51,1.71-1.14v-4.55C151.59,198.3,150.83,198.81,149.88,198.81Z"/><path class="cls-16" d="M149.88,204.5c-.94,0-1.7-.51-1.7-1.14v4.56c0,.62.76,1.13,1.7,1.13s1.71-.51,1.71-1.13v-4.56C151.59,204,150.83,204.5,149.88,204.5Z"/><path class="cls-16" d="M149.88,210.19c-.94,0-1.7-.51-1.7-1.14v4.56c0,.62.76,1.13,1.7,1.13s1.71-.51,1.71-1.13v-4.56C151.59,209.68,150.83,210.19,149.88,210.19Z"/><path class="cls-16" d="M154.44,193.12c-.95,0-1.71-.51-1.71-1.14v4.55c0,.63.76,1.14,1.71,1.14s1.7-.51,1.7-1.14V192C156.14,192.61,155.38,193.12,154.44,193.12Z"/><path class="cls-16" d="M154.44,198.81c-.95,0-1.71-.51-1.71-1.14v4.55c0,.63.76,1.14,1.71,1.14s1.7-.51,1.7-1.14v-4.55C156.14,198.3,155.38,198.81,154.44,198.81Z"/><path class="cls-16" d="M154.44,204.5c-.95,0-1.71-.51-1.71-1.14v4.56c0,.62.76,1.13,1.71,1.13s1.7-.51,1.7-1.13v-4.56C156.14,204,155.38,204.5,154.44,204.5Z"/><path class="cls-16" d="M154.44,210.19c-.95,0-1.71-.51-1.71-1.14v4.56c0,.62.76,1.13,1.71,1.13s1.7-.51,1.7-1.13v-4.56C156.14,209.68,155.38,210.19,154.44,210.19Z"/><path class="cls-16" d="M159,193.12c-.94,0-1.71-.51-1.71-1.14v4.55c0,.63.77,1.14,1.71,1.14s1.71-.51,1.71-1.14V192C160.7,192.61,159.93,193.12,159,193.12Z"/><path class="cls-16" d="M159,198.81c-.94,0-1.71-.51-1.71-1.14v4.55c0,.63.77,1.14,1.71,1.14s1.71-.51,1.71-1.14v-4.55C160.7,198.3,159.93,198.81,159,198.81Z"/><path class="cls-16" d="M159,204.5c-.94,0-1.71-.51-1.71-1.14v4.56c0,.62.77,1.13,1.71,1.13s1.71-.51,1.71-1.13v-4.56C160.7,204,159.93,204.5,159,204.5Z"/><path class="cls-16" d="M159,210.19c-.94,0-1.71-.51-1.71-1.14v4.56c0,.62.77,1.13,1.71,1.13s1.71-.51,1.71-1.13v-4.56C160.7,209.68,159.93,210.19,159,210.19Z"/><path class="cls-16" d="M163.54,193.12c-.94,0-1.71-.51-1.71-1.14v4.55c0,.63.77,1.14,1.71,1.14s1.71-.51,1.71-1.14V192C165.25,192.61,164.48,193.12,163.54,193.12Z"/><path class="cls-16" d="M163.54,198.81c-.94,0-1.71-.51-1.71-1.14v4.55c0,.63.77,1.14,1.71,1.14s1.71-.51,1.71-1.14v-4.55C165.25,198.3,164.48,198.81,163.54,198.81Z"/><path class="cls-16" d="M163.54,204.5c-.94,0-1.71-.51-1.71-1.14v4.56c0,.62.77,1.13,1.71,1.13s1.71-.51,1.71-1.13v-4.56C165.25,204,164.48,204.5,163.54,204.5Z"/><path class="cls-16" d="M163.54,210.19c-.94,0-1.71-.51-1.71-1.14v4.56c0,.62.77,1.13,1.71,1.13s1.71-.51,1.71-1.13v-4.56C165.25,209.68,164.48,210.19,163.54,210.19Z"/><path class="cls-16" d="M163.54,195.4c.94,0,1.71.51,1.71,1.13V192c0-.63-.77-1.14-1.71-1.14s-1.71.51-1.71,1.14v4.55C161.83,195.91,162.6,195.4,163.54,195.4Z"/><path class="cls-16" d="M159,195.4c.94,0,1.71.51,1.71,1.13V192c0-.63-.77-1.14-1.71-1.14s-1.71.51-1.71,1.14v4.55C157.28,195.91,158.05,195.4,159,195.4Z"/><path class="cls-16" d="M154.44,195.4c.94,0,1.7.51,1.7,1.13V192c0-.63-.76-1.14-1.7-1.14s-1.71.51-1.71,1.14v4.55C152.73,195.91,153.49,195.4,154.44,195.4Z"/><path class="cls-16" d="M149.88,195.4c1,0,1.71.51,1.71,1.13V192c0-.63-.76-1.14-1.71-1.14s-1.7.51-1.7,1.14v4.55C148.18,195.91,148.94,195.4,149.88,195.4Z"/><path class="cls-16" d="M145.33,195.4c.94,0,1.71.51,1.71,1.13V192c0-.63-.77-1.14-1.71-1.14s-1.71.51-1.71,1.14v4.55C143.62,195.91,144.39,195.4,145.33,195.4Z"/><path class="cls-16" d="M140.78,195.4c.94,0,1.71.51,1.71,1.13V192c0-.63-.77-1.14-1.71-1.14s-1.71.51-1.71,1.14v4.55C139.07,195.91,139.84,195.4,140.78,195.4Z"/><path class="cls-16" d="M136.23,195.4c.94,0,1.7.51,1.7,1.13V192c0-.63-.76-1.14-1.7-1.14s-1.71.51-1.71,1.14v4.55C134.52,195.91,135.28,195.4,136.23,195.4Z"/><path class="cls-16" d="M131.67,195.4c1,0,1.71.51,1.71,1.13V192c0-.63-.76-1.14-1.71-1.14s-1.7.51-1.7,1.14v4.55C130,195.91,130.73,195.4,131.67,195.4Z"/><path class="cls-16" d="M127.12,195.4c.94,0,1.71.51,1.71,1.13V192c0-.63-.77-1.14-1.71-1.14s-1.71.51-1.71,1.14v4.55C125.41,195.91,126.18,195.4,127.12,195.4Z"/><path class="cls-16" d="M122.57,195.4c.94,0,1.71.51,1.71,1.13V192c0-.63-.77-1.14-1.71-1.14s-1.71.51-1.71,1.14v4.55C120.86,195.91,121.63,195.4,122.57,195.4Z"/><path class="cls-16" d="M118,195.4c.94,0,1.7.51,1.7,1.13V192c0-.63-.76-1.14-1.7-1.14s-1.71.51-1.71,1.14v4.55C116.31,195.91,117.07,195.4,118,195.4Z"/><path class="cls-16" d="M113.46,195.4c1,0,1.71.51,1.71,1.13V192c0-.63-.76-1.14-1.71-1.14s-1.7.51-1.7,1.14v4.55C111.76,195.91,112.52,195.4,113.46,195.4Z"/><path class="cls-16" d="M108.91,195.4c.94,0,1.71.51,1.71,1.13V192c0-.63-.77-1.14-1.71-1.14s-1.71.51-1.71,1.14v4.55C107.2,195.91,108,195.4,108.91,195.4Z"/><g class="cls-17"><path d="M148.18,290.06V272.79c0-6.29-5.35-11.38-12-11.38h0a12,12,0,0,0-11,6.84Z"/></g><path class="cls-18" d="M135,270.51h2.37a3.94,3.94,0,0,1,3.94,3.94V291a0,0,0,0,1,0,0H131.1a0,0,0,0,1,0,0V274.45A3.94,3.94,0,0,1,135,270.51Z"/><polygon class="cls-19" points="184.03 191.98 206.79 191.98 225 209.05 165.82 209.05 184.03 191.98"/><rect class="cls-20" x="165.82" y="213.61" width="59.18" height="77.39"/><rect class="cls-21" x="165.82" y="280.76" width="59.18" height="10.24"/><rect class="cls-20" x="184.03" y="196.53" width="22.76" height="17.07"/><rect class="cls-22" x="211.34" y="240.92" width="9.11" height="13.66"/><path class="cls-19" d="M220.73,254.86h-9.67V240.64h9.67Zm-9.1-.57h8.53V241.21h-8.53Z"/><rect class="cls-19" x="211.34" y="249.74" width="9.11" height="0.57"/><rect class="cls-22" x="169.8" y="240.92" width="9.11" height="13.66"/><path class="cls-19" d="M179.19,254.86h-9.67V240.64h9.67Zm-9.1-.57h8.53V241.21h-8.53Z"/><rect class="cls-19" x="169.8" y="249.74" width="9.11" height="0.57"/><rect class="cls-22" x="184.03" y="240.92" width="9.11" height="13.66"/><path class="cls-19" d="M193.42,254.86h-9.68V240.64h9.68Zm-9.11-.57h8.54V241.21h-8.54Z"/><rect class="cls-19" x="184.03" y="249.74" width="9.11" height="0.57"/><rect class="cls-22" x="197.68" y="240.92" width="9.11" height="13.66"/><path class="cls-19" d="M207.07,254.86H197.4V240.64h9.67Zm-9.1-.57h8.54V241.21H198Z"/><rect class="cls-19" x="197.68" y="249.74" width="9.11" height="0.57"/><rect class="cls-22" x="211.34" y="261.41" width="9.11" height="13.66"/><path class="cls-19" d="M220.73,275.35h-9.67V261.12h9.67Zm-9.1-.57h8.53V261.69h-8.53Z"/><rect class="cls-19" x="211.34" y="270.23" width="9.11" height="0.57"/><rect class="cls-22" x="169.8" y="261.41" width="9.11" height="13.66"/><path class="cls-19" d="M179.19,275.35h-9.67V261.12h9.67Zm-9.1-.57h8.53V261.69h-8.53Z"/><rect class="cls-19" x="169.8" y="270.23" width="9.11" height="0.57"/><rect class="cls-22" x="169.8" y="220.43" width="9.11" height="13.66"/><path class="cls-19" d="M179.19,234.38h-9.67V220.15h9.67Zm-9.1-.57h8.53V220.72h-8.53Z"/><rect class="cls-19" x="169.8" y="229.26" width="9.11" height="0.57"/><rect class="cls-22" x="184.03" y="220.43" width="9.11" height="13.66"/><path class="cls-19" d="M193.42,234.38h-9.68V220.15h9.68Zm-9.11-.57h8.54V220.72h-8.54Z"/><rect class="cls-19" x="184.03" y="229.26" width="9.11" height="0.57"/><rect class="cls-22" x="197.68" y="220.43" width="9.11" height="13.66"/><path class="cls-19" d="M207.07,234.38H197.4V220.15h9.67Zm-9.1-.57h8.54V220.72H198Z"/><rect class="cls-19" x="197.68" y="229.26" width="9.11" height="0.57"/><rect class="cls-22" x="211.34" y="220.43" width="9.11" height="13.66"/><path class="cls-19" d="M220.73,234.38h-9.67V220.15h9.67Zm-9.1-.57h8.53V220.72h-8.53Z"/><rect class="cls-19" x="211.34" y="229.26" width="9.11" height="0.57"/><rect class="cls-19" x="188.58" y="261.41" width="13.66" height="22.76"/><rect class="cls-22" x="190.3" y="262.55" width="3.97" height="9.11"/><rect class="cls-22" x="196.55" y="262.55" width="3.96" height="9.11"/><rect class="cls-20" x="188.58" y="284.17" width="13.66" height="2.28"/><rect class="cls-20" x="186.3" y="286.45" width="18.21" height="2.28"/><rect class="cls-20" x="184.03" y="288.72" width="22.76" height="2.28"/><path class="cls-22" d="M201.1,205.64a5.69,5.69,0,1,1-5.69-5.69A5.69,5.69,0,0,1,201.1,205.64Z"/><path class="cls-19" d="M195.41,211.61a6,6,0,1,1,6-6A6,6,0,0,1,195.41,211.61Zm0-11.38a5.41,5.41,0,1,0,5.4,5.41A5.42,5.42,0,0,0,195.41,200.23Z"/><rect class="cls-19" x="189.72" y="205.35" width="11.38" height="0.57"/><rect class="cls-19" x="195.12" y="199.95" width="0.57" height="11.38"/><g class="cls-17"><polygon points="206.15 258.51 184.03 259.13 215.9 291 225 291 225 277.36 206.15 258.51"/></g><g class="cls-15"><polygon points="225 254.58 181.71 211.29 165.82 213.61 225 272.79 225 254.58"/></g><g class="cls-15"><polygon points="225 237.51 225 214.74 206.79 196.53 184.03 196.53 225 237.51"/></g><g class="cls-15"><polygon points="222.72 211.33 206.43 213.25 225 231.82 225 213.61 225 213.61 222.72 211.33"/></g><rect class="cls-21" x="165.82" y="209.05" width="18.21" height="4.55"/><rect class="cls-21" x="206.79" y="209.05" width="18.21" height="4.55"/><rect class="cls-21" x="184.03" y="256.85" width="22.76" height="2.28"/><polygon class="cls-23" points="225 213.61 284.18 213.61 254.59 181.74 225 213.61"/><rect class="cls-24" x="238.66" y="193.12" width="31.87" height="20.49"/><rect class="cls-24" x="225" y="213.61" width="59.18" height="77.39"/><rect class="cls-25" x="225" y="286.45" width="59.18" height="4.55"/><rect class="cls-12" x="243.21" y="199.95" width="9.11" height="13.66"/><path class="cls-13" d="M252.6,213.89h-9.67V199.66h9.67Zm-9.11-.57H252V200.23h-8.54Z"/><rect class="cls-13" x="243.21" y="204.22" width="9.11" height="0.57"/><rect class="cls-13" x="243.21" y="208.77" width="9.11" height="0.57"/><rect class="cls-13" x="247.48" y="199.95" width="0.57" height="13.66"/><rect class="cls-12" x="256.87" y="199.95" width="9.11" height="13.66"/><path class="cls-13" d="M266.26,213.89h-9.68V199.66h9.68Zm-9.11-.57h8.54V200.23h-8.54Z"/><rect class="cls-13" x="256.87" y="204.22" width="9.11" height="0.57"/><rect class="cls-13" x="256.87" y="208.77" width="9.11" height="0.57"/><rect class="cls-13" x="261.14" y="199.95" width="0.57" height="13.66"/><rect class="cls-12" x="229.55" y="220.43" width="9.11" height="13.66"/><path class="cls-13" d="M238.94,234.38h-9.67V220.15h9.67Zm-9.1-.57h8.53V220.72h-8.53Z"/><rect class="cls-13" x="229.55" y="224.7" width="9.11" height="0.57"/><rect class="cls-13" x="229.55" y="229.26" width="9.11" height="0.57"/><rect class="cls-13" x="233.82" y="220.43" width="0.57" height="13.66"/><rect class="cls-12" x="243.21" y="220.43" width="9.11" height="13.66"/><path class="cls-13" d="M252.6,234.38h-9.67V220.15h9.67Zm-9.11-.57H252V220.72h-8.54Z"/><rect class="cls-13" x="243.21" y="224.7" width="9.11" height="0.57"/><rect class="cls-13" x="243.21" y="229.26" width="9.11" height="0.57"/><rect class="cls-13" x="247.48" y="220.43" width="0.57" height="13.66"/><rect class="cls-12" x="256.87" y="220.43" width="9.11" height="13.66"/><path class="cls-13" d="M266.26,234.38h-9.68V220.15h9.68Zm-9.11-.57h8.54V220.72h-8.54Z"/><rect class="cls-13" x="256.87" y="224.7" width="9.11" height="0.57"/><rect class="cls-13" x="256.87" y="229.26" width="9.11" height="0.57"/><rect class="cls-13" x="261.14" y="220.43" width="0.57" height="13.66"/><rect class="cls-12" x="270.53" y="220.43" width="9.11" height="13.66"/><path class="cls-13" d="M279.91,234.38h-9.67V220.15h9.67Zm-9.1-.57h8.54V220.72h-8.54Z"/><rect class="cls-13" x="270.53" y="224.7" width="9.11" height="0.57"/><rect class="cls-13" x="270.53" y="229.26" width="9.11" height="0.57"/><rect class="cls-13" x="274.79" y="220.43" width="0.57" height="13.66"/><rect class="cls-12" x="229.55" y="240.92" width="9.11" height="13.66"/><path class="cls-13" d="M238.94,254.86h-9.67V240.64h9.67Zm-9.1-.57h8.53V241.21h-8.53Z"/><rect class="cls-13" x="229.55" y="245.19" width="9.11" height="0.57"/><rect class="cls-13" x="229.55" y="249.74" width="9.11" height="0.57"/><rect class="cls-13" x="233.82" y="240.92" width="0.57" height="13.66"/><rect class="cls-12" x="243.21" y="240.92" width="9.11" height="13.66"/><path class="cls-13" d="M252.6,254.86h-9.67V240.64h9.67Zm-9.11-.57H252V241.21h-8.54Z"/><rect class="cls-13" x="243.21" y="245.19" width="9.11" height="0.57"/><rect class="cls-13" x="243.21" y="249.74" width="9.11" height="0.57"/><rect class="cls-13" x="247.48" y="240.92" width="0.57" height="13.66"/><rect class="cls-12" x="256.87" y="240.92" width="9.11" height="13.66"/><path class="cls-13" d="M266.26,254.86h-9.68V240.64h9.68Zm-9.11-.57h8.54V241.21h-8.54Z"/><rect class="cls-13" x="256.87" y="245.19" width="9.11" height="0.57"/><rect class="cls-13" x="256.87" y="249.74" width="9.11" height="0.57"/><rect class="cls-13" x="261.14" y="240.92" width="0.57" height="13.66"/><rect class="cls-12" x="270.53" y="240.92" width="9.11" height="13.66"/><path class="cls-13" d="M279.91,254.86h-9.67V240.64h9.67Zm-9.1-.57h8.54V241.21h-8.54Z"/><rect class="cls-13" x="270.53" y="245.19" width="9.11" height="0.57"/><rect class="cls-13" x="270.53" y="249.74" width="9.11" height="0.57"/><rect class="cls-13" x="274.79" y="240.92" width="0.57" height="13.66"/><rect class="cls-12" x="270.53" y="261.41" width="9.11" height="22.76"/><path class="cls-13" d="M279.91,284.45h-9.67V261.12h9.67Zm-9.1-.56h8.54v-22.2h-8.54Z"/><rect class="cls-13" x="270.53" y="275.07" width="9.11" height="9.11"/><rect class="cls-13" x="270.53" y="265.68" width="9.11" height="0.57"/><rect class="cls-13" x="270.53" y="270.23" width="9.11" height="0.57"/><rect class="cls-13" x="274.79" y="261.41" width="0.57" height="13.66"/><rect class="cls-12" x="229.55" y="261.41" width="36.42" height="22.76"/><path class="cls-13" d="M266.26,284.45h-37V261.12h37Zm-36.42-.56h35.85v-22.2H229.84Z"/><rect class="cls-23" x="269.39" y="284.17" width="11.38" height="2.28"/><rect class="cls-23" x="268.25" y="286.45" width="13.66" height="2.28"/><rect class="cls-23" x="267.11" y="288.72" width="15.93" height="2.28"/><g class="cls-17"><polygon points="283.66 260.79 226.04 267.2 249.84 291 284.18 291 284.18 261.32 283.66 260.79"/></g><g class="cls-15"><polygon points="284.09 258.68 238.56 213.3 225.09 213.69 284.09 272.68 284.09 258.68"/></g><g class="cls-15"><polygon points="270.29 193.36 238.85 193.5 284.18 238.84 284.18 213.61 270.52 198.9 270.52 193.6 270.29 193.36"/></g><g class="cls-15"><polygon points="284.18 214.72 283.05 213.61 270.52 213.61 284.18 227.26 284.18 214.72"/></g><path class="cls-26" d="M230.63,267.67h.12A1.65,1.65,0,0,0,232.4,266v-5.18H229V266A1.65,1.65,0,0,0,230.63,267.67Z"/><path class="cls-27" d="M227.22,267.67h.12A1.64,1.64,0,0,0,229,266v-5.18h-3.41V266A1.65,1.65,0,0,0,227.22,267.67Z"/><path class="cls-26" d="M237.46,267.67h.12a1.65,1.65,0,0,0,1.65-1.65v-5.18h-3.42V266A1.65,1.65,0,0,0,237.46,267.67Z"/><path class="cls-27" d="M234.05,267.67h.11a1.65,1.65,0,0,0,1.65-1.65v-5.18H232.4V266A1.65,1.65,0,0,0,234.05,267.67Z"/><path class="cls-26" d="M244.29,267.67h.12a1.65,1.65,0,0,0,1.65-1.65v-5.18h-3.42V266A1.65,1.65,0,0,0,244.29,267.67Z"/><path class="cls-27" d="M240.87,267.67H241a1.65,1.65,0,0,0,1.65-1.65v-5.18h-3.41V266A1.64,1.64,0,0,0,240.87,267.67Z"/><path class="cls-26" d="M251.12,267.67h.12a1.64,1.64,0,0,0,1.64-1.65v-5.18h-3.41V266A1.65,1.65,0,0,0,251.12,267.67Z"/><path class="cls-27" d="M247.7,267.67h.12a1.65,1.65,0,0,0,1.65-1.65v-5.18h-3.41V266A1.64,1.64,0,0,0,247.7,267.67Z"/><path class="cls-26" d="M258,267.67h.11a1.65,1.65,0,0,0,1.65-1.65v-5.18H256.3V266A1.65,1.65,0,0,0,258,267.67Z"/><path class="cls-27" d="M254.53,267.67h.12A1.65,1.65,0,0,0,256.3,266v-5.18h-3.42V266A1.65,1.65,0,0,0,254.53,267.67Z"/><path class="cls-26" d="M264.78,267.67h.11a1.65,1.65,0,0,0,1.65-1.65v-5.18h-3.41V266A1.65,1.65,0,0,0,264.78,267.67Z"/><path class="cls-27" d="M261.36,267.67h.12a1.65,1.65,0,0,0,1.65-1.65v-5.18h-3.42V266A1.65,1.65,0,0,0,261.36,267.67Z"/><path class="cls-26" d="M271.6,267.67h.12a1.65,1.65,0,0,0,1.65-1.65v-5.18H270V266A1.64,1.64,0,0,0,271.6,267.67Z"/><path class="cls-27" d="M268.19,267.67h.12A1.65,1.65,0,0,0,270,266v-5.18h-3.42V266A1.65,1.65,0,0,0,268.19,267.67Z"/><path class="cls-27" d="M275,267.67h.12a1.64,1.64,0,0,0,1.64-1.65v-5.18h-3.41V266A1.65,1.65,0,0,0,275,267.67Z"/><path class="cls-26" d="M278.43,267.67h.12A1.65,1.65,0,0,0,280.2,266v-5.18h-3.42V266A1.65,1.65,0,0,0,278.43,267.67Z"/><path class="cls-27" d="M281.85,267.67H282a1.64,1.64,0,0,0,1.64-1.65v-5.18H280.2V266A1.65,1.65,0,0,0,281.85,267.67Z"/><rect class="cls-28" x="284.18" y="189.71" width="59.18" height="23.9"/><circle class="cls-29" cx="313.77" cy="213.04" r="14.23" transform="translate(-2.53 422.3) rotate(-67.66)"/><rect class="cls-29" x="284.18" y="213.61" width="59.18" height="77.39"/><rect class="cls-30" x="284.18" y="263.68" width="59.18" height="27.32"/><rect class="cls-29" x="284.18" y="280.76" width="59.18" height="10.24"/><path class="cls-22" d="M318.33,213.61h-9.11V208.9a4.4,4.4,0,0,1,4.4-4.4h.31a4.4,4.4,0,0,1,4.4,4.4Z"/><path class="cls-28" d="M318.61,213.89h-9.67v-5a4.69,4.69,0,0,1,4.68-4.68h.31a4.69,4.69,0,0,1,4.68,4.68Zm-9.1-.57H318V208.9a4.11,4.11,0,0,0-4.11-4.11h-.31a4.11,4.11,0,0,0-4.11,4.11Z"/><rect class="cls-28" x="309.22" y="208.77" width="9.11" height="0.57"/><rect class="cls-28" x="313.49" y="204.5" width="0.57" height="9.11"/><rect class="cls-22" x="329.71" y="240.92" width="9.11" height="13.66"/><path class="cls-28" d="M339.1,254.86h-9.68V240.64h9.68Zm-9.11-.57h8.54V241.21H330Z"/><rect class="cls-28" x="329.71" y="245.19" width="9.11" height="0.57"/><rect class="cls-28" x="333.98" y="240.92" width="0.57" height="13.66"/><rect class="cls-22" x="316.05" y="240.92" width="9.11" height="13.66"/><path class="cls-28" d="M325.44,254.86h-9.67V240.64h9.67Zm-9.11-.57h8.54V241.21h-8.54Z"/><rect class="cls-28" x="316.05" y="245.19" width="9.11" height="0.57"/><rect class="cls-28" x="320.32" y="240.92" width="0.57" height="13.66"/><rect class="cls-22" x="302.39" y="240.92" width="9.11" height="13.66"/><path class="cls-28" d="M311.78,254.86h-9.67V240.64h9.67Zm-9.1-.57h8.53V241.21h-8.53Z"/><rect class="cls-28" x="302.39" y="245.19" width="9.11" height="0.57"/><rect class="cls-28" x="306.66" y="240.92" width="0.57" height="13.66"/><rect class="cls-22" x="288.17" y="240.92" width="9.11" height="13.66"/><path class="cls-28" d="M297.56,254.86h-9.68V240.64h9.68Zm-9.11-.57H297V241.21h-8.54Z"/><rect class="cls-28" x="288.17" y="245.19" width="9.11" height="0.57"/><rect class="cls-28" x="292.43" y="240.92" width="0.57" height="13.66"/><rect class="cls-22" x="329.71" y="220.43" width="9.11" height="13.66"/><path class="cls-28" d="M339.1,234.38h-9.68V220.15h9.68Zm-9.11-.57h8.54V220.72H330Z"/><rect class="cls-28" x="329.71" y="224.7" width="9.11" height="0.57"/><rect class="cls-28" x="333.98" y="220.43" width="0.57" height="13.66"/><rect class="cls-22" x="316.05" y="220.43" width="9.11" height="13.66"/><path class="cls-28" d="M325.44,234.38h-9.67V220.15h9.67Zm-9.11-.57h8.54V220.72h-8.54Z"/><rect class="cls-28" x="316.05" y="224.7" width="9.11" height="0.57"/><rect class="cls-28" x="320.32" y="220.43" width="0.57" height="13.66"/><rect class="cls-22" x="302.39" y="220.43" width="9.11" height="13.66"/><path class="cls-28" d="M311.78,234.38h-9.67V220.15h9.67Zm-9.1-.57h8.53V220.72h-8.53Z"/><rect class="cls-28" x="302.39" y="224.7" width="9.11" height="0.57"/><rect class="cls-28" x="306.66" y="220.43" width="0.57" height="13.66"/><rect class="cls-22" x="288.17" y="220.43" width="9.11" height="13.66"/><path class="cls-28" d="M297.56,234.38h-9.68V220.15h9.68Zm-9.11-.57H297V220.72h-8.54Z"/><rect class="cls-28" x="288.17" y="224.7" width="9.11" height="0.57"/><rect class="cls-28" x="292.43" y="220.43" width="0.57" height="13.66"/><g class="cls-17"><polygon points="343.37 291 343.37 263.68 284.18 264.25 310.93 291 343.37 291"/></g><rect class="cls-31" x="284.18" y="259.7" width="59.18" height="4.55"/><path class="cls-28" d="M312.2,268.24h3.16a5.25,5.25,0,0,1,5.25,5.25V291a0,0,0,0,1,0,0H306.95a0,0,0,0,1,0,0V273.49A5.25,5.25,0,0,1,312.2,268.24Z"/><g class="cls-17"><path d="M313.77,268.24a6.83,6.83,0,0,0-6.65,5.3L320.6,287V275.07A6.82,6.82,0,0,0,313.77,268.24Z"/></g><path class="cls-32" d="M313,272.79h1.58a2.62,2.62,0,0,1,2.62,2.62V291a0,0,0,0,1,0,0h-6.83a0,0,0,0,1,0,0V275.41A2.62,2.62,0,0,1,313,272.79Z"/><path class="cls-28" d="M293.42,268.24h3.16a5.25,5.25,0,0,1,5.25,5.25V291a0,0,0,0,1,0,0H288.17a0,0,0,0,1,0,0V273.49A5.25,5.25,0,0,1,293.42,268.24Z"/><g class="cls-17"><path d="M295,268.24a6.83,6.83,0,0,0-6.65,5.3L301.82,287V275.07A6.82,6.82,0,0,0,295,268.24Z"/></g><path class="cls-32" d="M294.21,272.79h1.58a2.62,2.62,0,0,1,2.62,2.62V291a0,0,0,0,1,0,0h-6.83a0,0,0,0,1,0,0V275.41A2.62,2.62,0,0,1,294.21,272.79Z"/><path class="cls-28" d="M330.41,268.24h3.16a5.25,5.25,0,0,1,5.25,5.25V291a0,0,0,0,1,0,0H325.16a0,0,0,0,1,0,0V273.49A5.25,5.25,0,0,1,330.41,268.24Z"/><g class="cls-17"><path d="M332,268.24a6.83,6.83,0,0,0-6.65,5.3L338.81,287V275.07A6.82,6.82,0,0,0,332,268.24Z"/></g><path class="cls-32" d="M331.19,272.79h1.58a2.62,2.62,0,0,1,2.62,2.62V291a0,0,0,0,1,0,0h-6.83a0,0,0,0,1,0,0V275.41A2.63,2.63,0,0,1,331.19,272.79Z"/><g class="cls-15"><path d="M343.37,272.79V213.61H328c0-.19,0-.38,0-.57a14.23,14.23,0,1,0-28.45,0c0,.19,0,.38,0,.57H284.18Z"/></g><circle class="cls-5" cx="106.6" cy="262.76" r="12.73"/><g class="cls-6"><path d="M119.33,262.76A12.73,12.73,0,0,0,106.6,250v25.46A12.73,12.73,0,0,0,119.33,262.76Z"/></g><rect class="cls-7" x="105.64" y="259.57" width="1.91" height="31.42"/><polygon class="cls-7" points="107.23 275.25 99.75 267.28 100.68 266.41 105.96 272.03 105.96 268.57 112.53 262.3 113.41 263.22 107.23 269.11 107.23 275.25"/><circle class="cls-5" cx="225.57" cy="262.76" r="12.73"/><g class="cls-6"><path d="M238.3,262.76A12.73,12.73,0,0,0,225.57,250v25.46A12.73,12.73,0,0,0,238.3,262.76Z"/></g><rect class="cls-7" x="224.61" y="259.57" width="1.91" height="31.42"/><polygon class="cls-7" points="226.21 275.25 218.73 267.28 219.66 266.41 224.93 272.03 224.93 268.57 231.51 262.3 232.39 263.22 226.21 269.11 226.21 275.25"/><polygon class="cls-5" points="182.46 291 177.09 282.45 180.7 282.45 175.33 273.9 177.85 273.9 172.74 265.76 175.13 265.76 170.86 258.97 173.24 258.97 167.62 250.03 162 258.97 164.39 258.97 160.12 265.76 162.51 265.76 157.39 273.9 159.92 273.9 154.54 282.45 158.16 282.45 152.79 291 182.46 291"/><g class="cls-6"><polygon points="182.46 291 177.09 282.45 180.7 282.45 175.33 273.9 177.85 273.9 172.74 265.76 175.13 265.76 170.86 258.97 173.24 258.97 167.62 250.03 167.62 291 182.46 291"/></g><path class="cls-13" d="M349.19,107.75a10.87,10.87,0,0,0-4.46,1,7.46,7.46,0,0,0,.06-1,7.62,7.62,0,0,0-9.17-7.5,11,11,0,0,0-21.85.12,7.79,7.79,0,0,0-2-.28,7.65,7.65,0,0,0-7.65,7.66v.12a11,11,0,0,0,1.55,21.83h43.52a11,11,0,1,0,0-21.95Z"/><path class="cls-13" d="M102.44,148.33a6.81,6.81,0,0,0-2.75.58,3.69,3.69,0,0,0,0-.58A4.71,4.71,0,0,0,95,143.62a4.91,4.91,0,0,0-.94.09,6.75,6.75,0,0,0-13.44.08,4.51,4.51,0,0,0-1.23-.17,4.71,4.71,0,0,0-4.71,4.71s0,0,0,.07a6.75,6.75,0,0,0,1,13.44h26.78a6.76,6.76,0,0,0,0-13.51Z"/><path class="cls-13" d="M240.93,122.84a4.29,4.29,0,0,0-1.75.37,2.31,2.31,0,0,0,0-.37,3,3,0,0,0-3-3,2.91,2.91,0,0,0-.6.06,4.31,4.31,0,0,0-8.57,0,2.88,2.88,0,0,0-.78-.1,3,3,0,0,0-3,3v0a4.31,4.31,0,0,0,.6,8.57h17.07a4.31,4.31,0,1,0,0-8.61Z"/><polygon class="cls-33" points="289.78 257.61 286.91 257.61 285.14 251.4 291.55 251.4 289.78 257.61"/><polygon class="cls-34" points="290.01 249.29 286.68 249.29 284.63 251.4 292.06 251.4 290.01 249.29"/><polygon class="cls-34" points="289.48 279.59 287.21 279.59 285.81 281.03 290.88 281.03 289.48 279.59"/><polygon class="cls-34" points="289.8 280.66 286.88 280.66 285.09 291 291.6 291 289.8 280.66"/><polygon class="cls-34" points="287.43 257.89 289.26 257.89 290.39 257.31 286.3 257.31 287.43 257.89"/><rect class="cls-34" x="287.94" y="246.79" width="0.8" height="3.21"/><rect class="cls-34" x="287.94" y="257.9" width="0.8" height="3.21"/><rect class="cls-34" x="287.54" y="258.92" width="1.61" height="21.06"/><path class="cls-34" d="M289.37,246.5a1,1,0,1,1-1-1A1,1,0,0,1,289.37,246.5Z"/><g class="cls-15"><polygon points="290.01 256.79 291.55 251.4 285.14 251.4 285.34 252.11 290.01 256.79"/></g><g class="cls-6"><polygon points="289.87 281.03 290.88 281.03 289.48 279.59 289.15 279.59 289.15 258.92 288.75 258.92 288.75 257.89 289.26 257.89 290.39 257.31 288.34 257.31 288.34 291 291.6 291 289.87 281.03"/></g><g class="cls-6"><path d="M292.06,251.4,290,249.29h-1.26v-1.84a1,1,0,0,0,.62-.95,1,1,0,0,0-1-1v5.93Z"/></g><polygon class="cls-33" points="86.77 257.61 83.9 257.61 82.13 251.4 88.54 251.4 86.77 257.61"/><polygon class="cls-34" points="87 249.29 83.67 249.29 81.62 251.4 89.05 251.4 87 249.29"/><polygon class="cls-34" points="86.47 279.59 84.2 279.59 82.8 281.03 87.87 281.03 86.47 279.59"/><polygon class="cls-34" points="86.79 280.66 83.88 280.66 82.08 291 88.59 291 86.79 280.66"/><polygon class="cls-34" points="84.42 257.89 86.25 257.89 87.38 257.31 83.29 257.31 84.42 257.89"/><rect class="cls-34" x="84.93" y="246.79" width="0.8" height="3.21"/><rect class="cls-34" x="84.93" y="257.9" width="0.8" height="3.21"/><rect class="cls-34" x="84.53" y="258.92" width="1.61" height="21.06"/><circle class="cls-34" cx="85.34" cy="246.5" r="1.03"/><g class="cls-15"><polygon points="87.01 256.79 88.54 251.4 82.13 251.4 82.33 252.11 87.01 256.79"/></g><g class="cls-6"><polygon points="86.86 281.03 87.87 281.03 86.47 279.59 86.14 279.59 86.14 258.92 85.74 258.92 85.74 257.89 86.25 257.89 87.38 257.31 85.33 257.31 85.33 291 88.59 291 86.86 281.03"/></g><g class="cls-6"><path d="M89.05,251.4l-2-2.11H85.74v-1.84a1,1,0,0,0-.4-2v5.93Z"/></g></g></g></svg>