<svg xmlns="http://www.w3.org/2000/svg" viewBox="0 0 450 383.7"><defs><style>.cls-1{isolation:isolate;}.cls-2{fill:#45595b;}.cls-3{opacity:0.15;}.cls-13,.cls-15,.cls-3,.cls-5{mix-blend-mode:multiply;}.cls-4{fill:#89d425;}.cls-5{opacity:0.3;}.cls-6{fill:#5a351f;}.cls-7{fill:#58595b;}.cls-8{fill:#f46425;}.cls-9{fill:#bcbec0;}.cls-10{fill:#939598;}.cls-11{fill:#fff;}.cls-12{fill:#4f2510;}.cls-13,.cls-34{opacity:0.1;}.cls-14{fill:#804423;}.cls-15{opacity:0.2;}.cls-16{fill:#252626;}.cls-17{fill:#755138;}.cls-18{fill:#b38867;}.cls-19{fill:#d8b49c;}.cls-20{fill:#816622;}.cls-21{fill:#f8cc5b;}.cls-22{fill:#a8863b;}.cls-23{fill:#fde8e7;}.cls-24{fill:#ea6a6a;}.cls-25{fill:#3c5638;}.cls-26{fill:#85ba80;}.cls-27{fill:#6a8767;}.cls-28{fill:#bee2ba;}.cls-29{fill:#1b2818;}.cls-30,.cls-33{opacity:0.5;}.cls-31{fill:#ff9;}.cls-32{fill:#166872;}.cls-33,.cls-34{mix-blend-mode:screen;}.cls-35{fill:#dedede;}.cls-36{fill:#ededed;}.cls-37{fill:#ffffd9;}.cls-38{fill:#fff650;}</style></defs><title>46146 [Converted]</title><g class="cls-1"><g id="Layer_3" data-name="Layer 3"><rect class="cls-2" width="450" height="383.7"/><g class="cls-3"><polygon points="397.94 295.44 397.94 242.19 382.76 227.28 368.69 227.28 368.69 292.87 397.94 295.44"/><rect x="309.36" y="215.95" width="53.97" height="80.47"/><rect x="320.96" y="250.77" width="53.97" height="45.65"/><rect x="245.69" y="170.83" width="60.95" height="127.95"/><rect x="245.69" y="149.56" width="28.74" height="122.09"/><rect x="138.28" y="177.77" width="36.47" height="121.02"/><rect x="204.32" y="191.3" width="36.47" height="107.49"/><rect x="52.06" y="231.49" width="52.95" height="65.31"/><rect x="59.34" y="209.32" width="38.37" height="65.31"/><polygon points="67.84 260.81 89.22 260.81 89.22 195.5 78.53 182.39 67.84 195.5 67.84 260.81"/><ellipse cx="221.38" cy="188.38" rx="10.82" ry="10.62"/></g><polygon class="cls-4" points="363.97 296.42 360.25 290.5 362.76 290.5 359.03 284.57 360.78 284.57 357.24 278.92 358.89 278.92 355.94 274.22 357.59 274.22 353.69 268.02 349.8 274.22 351.45 274.22 348.49 278.92 350.14 278.92 346.6 284.57 348.35 284.57 344.63 290.5 347.13 290.5 343.41 296.42 363.97 296.42"/><g class="cls-5"><polygon points="363.97 296.42 360.25 290.5 362.76 290.5 359.03 284.57 360.78 284.57 357.24 278.92 358.89 278.92 355.94 274.22 357.59 274.22 353.69 268.02 353.69 296.42 363.97 296.42"/></g><circle class="cls-4" cx="63.6" cy="276.84" r="8.82"/><g class="cls-5"><path d="M72.42,276.84A8.82,8.82,0,0,0,63.6,268v17.64A8.82,8.82,0,0,0,72.42,276.84Z"/></g><rect class="cls-6" x="62.71" y="274.36" width="1.76" height="22.06"/><polygon class="cls-6" points="63.6 285.52 58.52 279.98 59.17 279.38 62.72 283.25 62.72 280.86 67.5 276.51 68.09 277.17 63.6 281.25 63.6 285.52"/><circle class="cls-4" cx="381.74" cy="268.79" r="14.97" transform="translate(32.8 578.96) rotate(-76.78)"/><g class="cls-5"><path d="M396.71,268.79a15,15,0,0,0-15-15v29.93A15,15,0,0,0,396.71,268.79Z"/></g><rect class="cls-6" x="380.62" y="265.04" width="2.24" height="31.37"/><polygon class="cls-6" points="380.99 283.47 380.99 276.26 373.72 269.33 374.76 268.24 382.49 275.62 382.49 279.69 388.69 273.08 389.78 274.11 380.99 283.47"/><rect class="cls-4" x="35.66" y="291.68" width="378.68" height="4.73"/><rect class="cls-7" x="35.66" y="296.42" width="378.68" height="4.73"/><rect class="cls-8" x="101.93" y="215.95" width="61.54" height="80.47"/><rect class="cls-9" x="101.93" y="262.1" width="61.54" height="34.32"/><rect class="cls-10" x="101.93" y="285.77" width="61.54" height="10.65"/><path class="cls-7" d="M132.7,265.65h0a12.42,12.42,0,0,1,12.42,12.43v18.34H120.27V278.08A12.42,12.42,0,0,1,132.7,265.65Z"/><path class="cls-7" d="M158.73,237.25h-9.47v-9.47a4.74,4.74,0,0,1,4.74-4.73h0a4.73,4.73,0,0,1,4.73,4.73Z"/><path class="cls-11" d="M159,237.55H149v-9.77a5,5,0,1,1,10.06,0Zm-9.47-.6h8.87v-9.17a4.44,4.44,0,1,0-8.87,0Z"/><rect class="cls-11" x="149.26" y="227.49" width="9.47" height="0.59"/><rect class="cls-11" x="149.26" y="232.22" width="9.47" height="0.59"/><rect class="cls-11" x="153.7" y="223.05" width="0.59" height="14.2"/><path class="cls-7" d="M144.53,237.25h-9.47v-9.47a4.74,4.74,0,0,1,4.74-4.73h0a4.73,4.73,0,0,1,4.73,4.73Z"/><path class="cls-11" d="M144.83,237.55H134.77v-9.77a5,5,0,1,1,10.06,0Zm-9.47-.6h8.87v-9.17a4.44,4.44,0,1,0-8.87,0Z"/><rect class="cls-11" x="135.06" y="227.49" width="9.47" height="0.59"/><rect class="cls-11" x="135.06" y="232.22" width="9.47" height="0.59"/><rect class="cls-11" x="139.5" y="223.05" width="0.59" height="14.2"/><path class="cls-7" d="M115.54,237.25h-9.47v-9.47a4.73,4.73,0,0,1,4.73-4.73h0a4.74,4.74,0,0,1,4.74,4.73Z"/><path class="cls-11" d="M115.83,237.55H105.77v-9.77a5,5,0,1,1,10.06,0Zm-9.46-.6h8.87v-9.17a4.44,4.44,0,1,0-8.87,0Z"/><rect class="cls-11" x="106.07" y="227.49" width="9.47" height="0.59"/><rect class="cls-11" x="106.07" y="232.22" width="9.47" height="0.59"/><rect class="cls-11" x="110.51" y="223.05" width="0.59" height="14.2"/><path class="cls-7" d="M130.33,237.25h-9.47v-9.47a4.74,4.74,0,0,1,4.74-4.73h0a4.73,4.73,0,0,1,4.73,4.73Z"/><path class="cls-11" d="M130.63,237.55H120.57v-9.77a5,5,0,0,1,10.06,0Zm-9.47-.6H130v-9.17a4.44,4.44,0,1,0-8.87,0Z"/><rect class="cls-11" x="120.86" y="227.49" width="9.47" height="0.59"/><rect class="cls-11" x="120.86" y="232.22" width="9.47" height="0.59"/><rect class="cls-11" x="125.3" y="223.05" width="0.59" height="14.2"/><rect class="cls-7" x="106.07" y="244.35" width="9.47" height="14.2"/><path class="cls-11" d="M115.83,258.85H105.77v-14.8h10.06Zm-9.46-.6h8.87v-13.6h-8.87Z"/><rect class="cls-11" x="106.07" y="248.79" width="9.47" height="0.59"/><rect class="cls-11" x="106.07" y="253.52" width="9.47" height="0.59"/><rect class="cls-11" x="110.51" y="244.35" width="0.59" height="14.2"/><rect class="cls-7" x="120.86" y="244.35" width="9.47" height="14.2"/><path class="cls-11" d="M130.63,258.85H120.57v-14.8h10.06Zm-9.47-.6H130v-13.6h-8.87Z"/><rect class="cls-11" x="120.86" y="248.79" width="9.47" height="0.59"/><rect class="cls-11" x="120.86" y="253.52" width="9.47" height="0.59"/><rect class="cls-11" x="125.3" y="244.35" width="0.59" height="14.2"/><rect class="cls-7" x="149.26" y="244.35" width="9.47" height="14.2"/><path class="cls-11" d="M159,258.85H149v-14.8H159Zm-9.47-.6h8.87v-13.6h-8.87Z"/><rect class="cls-11" x="149.26" y="248.79" width="9.47" height="0.59"/><rect class="cls-11" x="149.26" y="253.52" width="9.47" height="0.59"/><rect class="cls-11" x="153.7" y="244.35" width="0.59" height="14.2"/><rect class="cls-7" x="135.06" y="244.35" width="9.47" height="14.2"/><path class="cls-11" d="M144.83,258.85H134.77v-14.8h10.06Zm-9.47-.6h8.87v-13.6h-8.87Z"/><rect class="cls-11" x="135.06" y="248.79" width="9.47" height="0.59"/><rect class="cls-11" x="135.06" y="253.52" width="9.47" height="0.59"/><rect class="cls-11" x="139.5" y="244.35" width="0.59" height="14.2"/><rect class="cls-7" x="106.07" y="265.65" width="9.47" height="14.2"/><path class="cls-11" d="M115.83,280.15H105.77v-14.8h10.06Zm-9.46-.59h8.87V266h-8.87Z"/><rect class="cls-11" x="106.07" y="270.09" width="9.47" height="0.59"/><rect class="cls-11" x="106.07" y="274.82" width="9.47" height="0.59"/><rect class="cls-11" x="110.51" y="265.65" width="0.59" height="14.2"/><rect class="cls-7" x="149.26" y="265.65" width="9.47" height="14.2"/><path class="cls-11" d="M159,280.15H149v-14.8H159Zm-9.47-.59h8.87V266h-8.87Z"/><rect class="cls-11" x="149.26" y="270.09" width="9.47" height="0.59"/><rect class="cls-11" x="149.26" y="274.82" width="9.47" height="0.59"/><rect class="cls-11" x="153.7" y="265.65" width="0.59" height="14.2"/><rect class="cls-12" x="101.93" y="191.1" width="61.54" height="24.85"/><g class="cls-13"><polygon points="163.46 215.95 101.93 215.95 163.46 277.48 163.46 215.95"/></g><path class="cls-14" d="M104.3,194.65c-1,0-1.78-.53-1.78-1.19v4.74c0,.65.8,1.18,1.78,1.18s1.77-.53,1.77-1.18v-4.74C106.07,194.12,105.28,194.65,104.3,194.65Z"/><path class="cls-14" d="M104.3,200.56c-1,0-1.78-.53-1.78-1.18v4.73c0,.66.8,1.19,1.78,1.19s1.77-.53,1.77-1.19v-4.73C106.07,200,105.28,200.56,104.3,200.56Z"/><path class="cls-14" d="M104.3,206.48c-1,0-1.78-.53-1.78-1.18V210c0,.65.8,1.18,1.78,1.18s1.77-.53,1.77-1.18V205.3C106.07,206,105.28,206.48,104.3,206.48Z"/><path class="cls-14" d="M104.3,212.4c-1,0-1.78-.53-1.78-1.19V216c0,.65.8,1.18,1.78,1.18s1.77-.53,1.77-1.18v-4.74C106.07,211.87,105.28,212.4,104.3,212.4Z"/><path class="cls-14" d="M109,194.65c-1,0-1.78-.53-1.78-1.19v4.74c0,.65.8,1.18,1.78,1.18s1.77-.53,1.77-1.18v-4.74C110.8,194.12,110,194.65,109,194.65Z"/><path class="cls-14" d="M109,200.56c-1,0-1.78-.53-1.78-1.18v4.73c0,.66.8,1.19,1.78,1.19s1.77-.53,1.77-1.19v-4.73C110.8,200,110,200.56,109,200.56Z"/><path class="cls-14" d="M109,206.48c-1,0-1.78-.53-1.78-1.18V210c0,.65.8,1.18,1.78,1.18s1.77-.53,1.77-1.18V205.3C110.8,206,110,206.48,109,206.48Z"/><path class="cls-14" d="M109,212.4c-1,0-1.78-.53-1.78-1.19V216c0,.65.8,1.18,1.78,1.18s1.77-.53,1.77-1.18v-4.74C110.8,211.87,110,212.4,109,212.4Z"/><path class="cls-14" d="M113.76,194.65c-1,0-1.77-.53-1.77-1.19v4.74c0,.65.79,1.18,1.77,1.18s1.78-.53,1.78-1.18v-4.74C115.54,194.12,114.74,194.65,113.76,194.65Z"/><path class="cls-14" d="M113.76,200.56c-1,0-1.77-.53-1.77-1.18v4.73c0,.66.79,1.19,1.77,1.19s1.78-.53,1.78-1.19v-4.73C115.54,200,114.74,200.56,113.76,200.56Z"/><path class="cls-14" d="M113.76,206.48c-1,0-1.77-.53-1.77-1.18V210c0,.65.79,1.18,1.77,1.18s1.78-.53,1.78-1.18V205.3C115.54,206,114.74,206.48,113.76,206.48Z"/><path class="cls-14" d="M113.76,212.4c-1,0-1.77-.53-1.77-1.19V216c0,.65.79,1.18,1.77,1.18s1.78-.53,1.78-1.18v-4.74C115.54,211.87,114.74,212.4,113.76,212.4Z"/><path class="cls-14" d="M118.5,194.65c-1,0-1.78-.53-1.78-1.19v4.74c0,.65.8,1.18,1.78,1.18s1.77-.53,1.77-1.18v-4.74C120.27,194.12,119.48,194.65,118.5,194.65Z"/><path class="cls-14" d="M118.5,200.56c-1,0-1.78-.53-1.78-1.18v4.73c0,.66.8,1.19,1.78,1.19s1.77-.53,1.77-1.19v-4.73C120.27,200,119.48,200.56,118.5,200.56Z"/><path class="cls-14" d="M118.5,206.48c-1,0-1.78-.53-1.78-1.18V210c0,.65.8,1.18,1.78,1.18s1.77-.53,1.77-1.18V205.3C120.27,206,119.48,206.48,118.5,206.48Z"/><path class="cls-14" d="M118.5,212.4c-1,0-1.78-.53-1.78-1.19V216c0,.65.8,1.18,1.78,1.18s1.77-.53,1.77-1.18v-4.74C120.27,211.87,119.48,212.4,118.5,212.4Z"/><path class="cls-14" d="M123.23,194.65c-1,0-1.78-.53-1.78-1.19v4.74c0,.65.8,1.18,1.78,1.18s1.77-.53,1.77-1.18v-4.74C125,194.12,124.21,194.65,123.23,194.65Z"/><path class="cls-14" d="M123.23,200.56c-1,0-1.78-.53-1.78-1.18v4.73c0,.66.8,1.19,1.78,1.19s1.77-.53,1.77-1.19v-4.73C125,200,124.21,200.56,123.23,200.56Z"/><path class="cls-14" d="M123.23,206.48c-1,0-1.78-.53-1.78-1.18V210c0,.65.8,1.18,1.78,1.18S125,210.68,125,210V205.3C125,206,124.21,206.48,123.23,206.48Z"/><path class="cls-14" d="M123.23,212.4c-1,0-1.78-.53-1.78-1.19V216c0,.65.8,1.18,1.78,1.18S125,216.6,125,216v-4.74C125,211.87,124.21,212.4,123.23,212.4Z"/><path class="cls-14" d="M128,194.65c-1,0-1.77-.53-1.77-1.19v4.74c0,.65.79,1.18,1.77,1.18s1.78-.53,1.78-1.18v-4.74C129.74,194.12,128.94,194.65,128,194.65Z"/><path class="cls-14" d="M128,200.56c-1,0-1.77-.53-1.77-1.18v4.73c0,.66.79,1.19,1.77,1.19s1.78-.53,1.78-1.19v-4.73C129.74,200,128.94,200.56,128,200.56Z"/><path class="cls-14" d="M128,206.48c-1,0-1.77-.53-1.77-1.18V210c0,.65.79,1.18,1.77,1.18s1.78-.53,1.78-1.18V205.3C129.74,206,128.94,206.48,128,206.48Z"/><path class="cls-14" d="M128,212.4c-1,0-1.77-.53-1.77-1.19V216c0,.65.79,1.18,1.77,1.18s1.78-.53,1.78-1.18v-4.74C129.74,211.87,128.94,212.4,128,212.4Z"/><path class="cls-14" d="M132.7,194.65c-1,0-1.78-.53-1.78-1.19v4.74c0,.65.8,1.18,1.78,1.18s1.77-.53,1.77-1.18v-4.74C134.47,194.12,133.68,194.65,132.7,194.65Z"/><path class="cls-14" d="M132.7,200.56c-1,0-1.78-.53-1.78-1.18v4.73c0,.66.8,1.19,1.78,1.19s1.77-.53,1.77-1.19v-4.73C134.47,200,133.68,200.56,132.7,200.56Z"/><path class="cls-14" d="M132.7,206.48c-1,0-1.78-.53-1.78-1.18V210c0,.65.8,1.18,1.78,1.18s1.77-.53,1.77-1.18V205.3C134.47,206,133.68,206.48,132.7,206.48Z"/><path class="cls-14" d="M132.7,212.4c-1,0-1.78-.53-1.78-1.19V216c0,.65.8,1.18,1.78,1.18s1.77-.53,1.77-1.18v-4.74C134.47,211.87,133.68,212.4,132.7,212.4Z"/><path class="cls-14" d="M137.43,194.65c-1,0-1.78-.53-1.78-1.19v4.74c0,.65.8,1.18,1.78,1.18s1.78-.53,1.78-1.18v-4.74C139.21,194.12,138.41,194.65,137.43,194.65Z"/><path class="cls-14" d="M137.43,200.56c-1,0-1.78-.53-1.78-1.18v4.73c0,.66.8,1.19,1.78,1.19s1.78-.53,1.78-1.19v-4.73C139.21,200,138.41,200.56,137.43,200.56Z"/><path class="cls-14" d="M137.43,206.48c-1,0-1.78-.53-1.78-1.18V210c0,.65.8,1.18,1.78,1.18s1.78-.53,1.78-1.18V205.3C139.21,206,138.41,206.48,137.43,206.48Z"/><path class="cls-14" d="M137.43,212.4c-1,0-1.78-.53-1.78-1.19V216c0,.65.8,1.18,1.78,1.18s1.78-.53,1.78-1.18v-4.74C139.21,211.87,138.41,212.4,137.43,212.4Z"/><path class="cls-14" d="M142.16,194.65c-1,0-1.77-.53-1.77-1.19v4.74c0,.65.79,1.18,1.77,1.18s1.78-.53,1.78-1.18v-4.74C143.94,194.12,143.14,194.65,142.16,194.65Z"/><path class="cls-14" d="M142.16,200.56c-1,0-1.77-.53-1.77-1.18v4.73c0,.66.79,1.19,1.77,1.19s1.78-.53,1.78-1.19v-4.73C143.94,200,143.14,200.56,142.16,200.56Z"/><path class="cls-14" d="M142.16,206.48c-1,0-1.77-.53-1.77-1.18V210c0,.65.79,1.18,1.77,1.18s1.78-.53,1.78-1.18V205.3C143.94,206,143.14,206.48,142.16,206.48Z"/><path class="cls-14" d="M142.16,212.4c-1,0-1.77-.53-1.77-1.19V216c0,.65.79,1.18,1.77,1.18s1.78-.53,1.78-1.18v-4.74C143.94,211.87,143.14,212.4,142.16,212.4Z"/><path class="cls-14" d="M146.9,194.65c-1,0-1.78-.53-1.78-1.19v4.74c0,.65.8,1.18,1.78,1.18s1.77-.53,1.77-1.18v-4.74C148.67,194.12,147.88,194.65,146.9,194.65Z"/><path class="cls-14" d="M146.9,200.56c-1,0-1.78-.53-1.78-1.18v4.73c0,.66.8,1.19,1.78,1.19s1.77-.53,1.77-1.19v-4.73C148.67,200,147.88,200.56,146.9,200.56Z"/><path class="cls-14" d="M146.9,206.48c-1,0-1.78-.53-1.78-1.18V210c0,.65.8,1.18,1.78,1.18s1.77-.53,1.77-1.18V205.3C148.67,206,147.88,206.48,146.9,206.48Z"/><path class="cls-14" d="M146.9,212.4c-1,0-1.78-.53-1.78-1.19V216c0,.65.8,1.18,1.78,1.18s1.77-.53,1.77-1.18v-4.74C148.67,211.87,147.88,212.4,146.9,212.4Z"/><path class="cls-14" d="M151.63,194.65c-1,0-1.77-.53-1.77-1.19v4.74c0,.65.79,1.18,1.77,1.18s1.78-.53,1.78-1.18v-4.74C153.41,194.12,152.61,194.65,151.63,194.65Z"/><path class="cls-14" d="M151.63,200.56c-1,0-1.77-.53-1.77-1.18v4.73c0,.66.79,1.19,1.77,1.19s1.78-.53,1.78-1.19v-4.73C153.41,200,152.61,200.56,151.63,200.56Z"/><path class="cls-14" d="M151.63,206.48c-1,0-1.77-.53-1.77-1.18V210c0,.65.79,1.18,1.77,1.18s1.78-.53,1.78-1.18V205.3C153.41,206,152.61,206.48,151.63,206.48Z"/><path class="cls-14" d="M151.63,212.4c-1,0-1.77-.53-1.77-1.19V216c0,.65.79,1.18,1.77,1.18s1.78-.53,1.78-1.18v-4.74C153.41,211.87,152.61,212.4,151.63,212.4Z"/><path class="cls-14" d="M156.36,194.65c-1,0-1.77-.53-1.77-1.19v4.74c0,.65.79,1.18,1.77,1.18s1.78-.53,1.78-1.18v-4.74C158.14,194.12,157.34,194.65,156.36,194.65Z"/><path class="cls-14" d="M156.36,200.56c-1,0-1.77-.53-1.77-1.18v4.73c0,.66.79,1.19,1.77,1.19s1.78-.53,1.78-1.19v-4.73C158.14,200,157.34,200.56,156.36,200.56Z"/><path class="cls-14" d="M156.36,206.48c-1,0-1.77-.53-1.77-1.18V210c0,.65.79,1.18,1.77,1.18s1.78-.53,1.78-1.18V205.3C158.14,206,157.34,206.48,156.36,206.48Z"/><path class="cls-14" d="M156.36,212.4c-1,0-1.77-.53-1.77-1.19V216c0,.65.79,1.18,1.77,1.18s1.78-.53,1.78-1.18v-4.74C158.14,211.87,157.34,212.4,156.36,212.4Z"/><path class="cls-14" d="M161.1,194.65c-1,0-1.78-.53-1.78-1.19v4.74c0,.65.8,1.18,1.78,1.18s1.77-.53,1.77-1.18v-4.74C162.87,194.12,162.08,194.65,161.1,194.65Z"/><path class="cls-14" d="M161.1,200.56c-1,0-1.78-.53-1.78-1.18v4.73c0,.66.8,1.19,1.78,1.19s1.77-.53,1.77-1.19v-4.73C162.87,200,162.08,200.56,161.1,200.56Z"/><path class="cls-14" d="M161.1,206.48c-1,0-1.78-.53-1.78-1.18V210c0,.65.8,1.18,1.78,1.18s1.77-.53,1.77-1.18V205.3C162.87,206,162.08,206.48,161.1,206.48Z"/><path class="cls-14" d="M161.1,212.4c-1,0-1.78-.53-1.78-1.19V216c0,.65.8,1.18,1.78,1.18s1.77-.53,1.77-1.18v-4.74C162.87,211.87,162.08,212.4,161.1,212.4Z"/><path class="cls-14" d="M161.1,197c1,0,1.77.53,1.77,1.19v-4.74c0-.65-.79-1.18-1.77-1.18s-1.78.53-1.78,1.18v4.74C159.32,197.54,160.12,197,161.1,197Z"/><path class="cls-14" d="M156.36,197c1,0,1.78.53,1.78,1.19v-4.74c0-.65-.8-1.18-1.78-1.18s-1.77.53-1.77,1.18v4.74C154.59,197.54,155.38,197,156.36,197Z"/><path class="cls-14" d="M151.63,197c1,0,1.78.53,1.78,1.19v-4.74c0-.65-.8-1.18-1.78-1.18s-1.77.53-1.77,1.18v4.74C149.86,197.54,150.65,197,151.63,197Z"/><path class="cls-14" d="M146.9,197c1,0,1.77.53,1.77,1.19v-4.74c0-.65-.79-1.18-1.77-1.18s-1.78.53-1.78,1.18v4.74C145.12,197.54,145.92,197,146.9,197Z"/><path class="cls-14" d="M142.16,197c1,0,1.78.53,1.78,1.19v-4.74c0-.65-.8-1.18-1.78-1.18s-1.77.53-1.77,1.18v4.74C140.39,197.54,141.18,197,142.16,197Z"/><path class="cls-14" d="M137.43,197c1,0,1.78.53,1.78,1.19v-4.74c0-.65-.8-1.18-1.78-1.18s-1.78.53-1.78,1.18v4.74C135.65,197.54,136.45,197,137.43,197Z"/><path class="cls-14" d="M132.7,197c1,0,1.77.53,1.77,1.19v-4.74c0-.65-.79-1.18-1.77-1.18s-1.78.53-1.78,1.18v4.74C130.92,197.54,131.72,197,132.7,197Z"/><path class="cls-14" d="M128,197c1,0,1.78.53,1.78,1.19v-4.74c0-.65-.8-1.18-1.78-1.18s-1.77.53-1.77,1.18v4.74C126.19,197.54,127,197,128,197Z"/><path class="cls-14" d="M123.23,197c1,0,1.77.53,1.77,1.19v-4.74c0-.65-.79-1.18-1.77-1.18s-1.78.53-1.78,1.18v4.74C121.45,197.54,122.25,197,123.23,197Z"/><path class="cls-14" d="M118.5,197c1,0,1.77.53,1.77,1.19v-4.74c0-.65-.79-1.18-1.77-1.18s-1.78.53-1.78,1.18v4.74C116.72,197.54,117.52,197,118.5,197Z"/><path class="cls-14" d="M113.76,197c1,0,1.78.53,1.78,1.19v-4.74c0-.65-.8-1.18-1.78-1.18s-1.77.53-1.77,1.18v4.74C112,197.54,112.78,197,113.76,197Z"/><path class="cls-14" d="M109,197c1,0,1.77.53,1.77,1.19v-4.74c0-.65-.79-1.18-1.77-1.18s-1.78.53-1.78,1.18v4.74C107.25,197.54,108.05,197,109,197Z"/><path class="cls-14" d="M104.3,197c1,0,1.77.53,1.77,1.19v-4.74c0-.65-.79-1.18-1.77-1.18s-1.78.53-1.78,1.18v4.74C102.52,197.54,103.32,197,104.3,197Z"/><g class="cls-15"><path d="M145.12,295.44v-18c0-6.53-5.56-11.83-12.42-11.83h0a12.45,12.45,0,0,0-11.39,7.11Z"/></g><path class="cls-16" d="M132.7,275.12h0a5.32,5.32,0,0,1,5.32,5.32v16H127.37v-16A5.33,5.33,0,0,1,132.7,275.12Z"/><polygon class="cls-17" points="182.4 193.46 206.07 193.46 225 211.22 163.46 211.22 182.4 193.46"/><rect class="cls-18" x="163.46" y="215.95" width="61.54" height="80.47"/><rect class="cls-19" x="163.46" y="285.77" width="61.54" height="10.65"/><rect class="cls-18" x="182.4" y="198.2" width="23.67" height="17.75"/><rect class="cls-7" x="210.8" y="244.35" width="9.47" height="14.2"/><path class="cls-17" d="M220.56,258.85H210.5v-14.8h10.06Zm-9.46-.6H220v-13.6H211.1Z"/><rect class="cls-17" x="210.8" y="253.52" width="9.47" height="0.59"/><rect class="cls-7" x="167.61" y="244.35" width="9.47" height="14.2"/><path class="cls-17" d="M177.37,258.85H167.31v-14.8h10.06Zm-9.47-.6h8.88v-13.6H167.9Z"/><rect class="cls-17" x="167.61" y="253.52" width="9.47" height="0.59"/><rect class="cls-7" x="182.4" y="244.35" width="9.47" height="14.2"/><path class="cls-17" d="M192.16,258.85H182.1v-14.8h10.06Zm-9.47-.6h8.88v-13.6h-8.88Z"/><rect class="cls-17" x="182.4" y="253.52" width="9.47" height="0.59"/><rect class="cls-7" x="196.6" y="244.35" width="9.47" height="14.2"/><path class="cls-17" d="M206.36,258.85H196.3v-14.8h10.06Zm-9.47-.6h8.88v-13.6h-8.88Z"/><rect class="cls-17" x="196.6" y="253.52" width="9.47" height="0.59"/><rect class="cls-7" x="210.8" y="265.65" width="9.47" height="14.2"/><path class="cls-17" d="M220.56,280.15H210.5v-14.8h10.06Zm-9.46-.59H220V266H211.1Z"/><rect class="cls-17" x="210.8" y="274.82" width="9.47" height="0.59"/><rect class="cls-7" x="167.61" y="265.65" width="9.47" height="14.2"/><path class="cls-17" d="M177.37,280.15H167.31v-14.8h10.06Zm-9.47-.59h8.88V266H167.9Z"/><rect class="cls-17" x="167.61" y="274.82" width="9.47" height="0.59"/><rect class="cls-7" x="167.61" y="223.05" width="9.47" height="14.2"/><path class="cls-17" d="M177.37,237.55H167.31v-14.8h10.06Zm-9.47-.6h8.88V223.34H167.9Z"/><rect class="cls-17" x="167.61" y="232.22" width="9.47" height="0.59"/><rect class="cls-7" x="182.4" y="223.05" width="9.47" height="14.2"/><path class="cls-17" d="M192.16,237.55H182.1v-14.8h10.06Zm-9.47-.6h8.88V223.34h-8.88Z"/><rect class="cls-17" x="182.4" y="232.22" width="9.47" height="0.59"/><rect class="cls-7" x="196.6" y="223.05" width="9.47" height="14.2"/><path class="cls-17" d="M206.36,237.55H196.3v-14.8h10.06Zm-9.47-.6h8.88V223.34h-8.88Z"/><rect class="cls-17" x="196.6" y="232.22" width="9.47" height="0.59"/><rect class="cls-7" x="210.8" y="223.05" width="9.47" height="14.2"/><path class="cls-17" d="M220.56,237.55H210.5v-14.8h10.06Zm-9.46-.6H220V223.34H211.1Z"/><rect class="cls-17" x="210.8" y="232.22" width="9.47" height="0.59"/><rect class="cls-17" x="187.13" y="265.65" width="14.2" height="23.67"/><rect class="cls-7" x="188.92" y="266.83" width="4.13" height="9.47"/><rect class="cls-7" x="195.42" y="266.83" width="4.12" height="9.47"/><rect class="cls-18" x="187.13" y="289.32" width="14.2" height="2.37"/><rect class="cls-18" x="184.77" y="291.68" width="18.93" height="2.37"/><rect class="cls-18" x="182.4" y="294.05" width="23.67" height="2.37"/><path class="cls-7" d="M200.15,207.66a5.92,5.92,0,1,1-5.92-5.91A5.92,5.92,0,0,1,200.15,207.66Z"/><path class="cls-17" d="M194.23,213.88a6.22,6.22,0,1,1,6.21-6.22A6.22,6.22,0,0,1,194.23,213.88Zm0-11.84a5.63,5.63,0,1,0,5.62,5.62A5.62,5.62,0,0,0,194.23,202Z"/><rect class="cls-17" x="188.32" y="207.37" width="11.83" height="0.59"/><rect class="cls-17" x="193.94" y="201.75" width="0.59" height="11.83"/><g class="cls-15"><polygon points="205.4 262.64 182.4 263.28 215.54 296.42 225 296.42 225 282.24 205.4 262.64"/></g><g class="cls-13"><polygon points="225 258.55 179.99 213.54 163.46 215.95 225 277.48 225 258.55"/></g><g class="cls-13"><polygon points="225 240.8 225 217.13 206.07 198.2 182.4 198.2 225 240.8"/></g><g class="cls-13"><polygon points="222.63 213.58 205.69 215.57 225 234.88 225 215.95 225 215.95 222.63 213.58"/></g><rect class="cls-19" x="163.46" y="211.21" width="18.93" height="4.73"/><rect class="cls-19" x="206.07" y="211.21" width="18.93" height="4.73"/><rect class="cls-19" x="182.4" y="260.92" width="23.67" height="2.37"/><polygon class="cls-20" points="225 215.95 286.54 215.95 255.77 182.81 225 215.95"/><rect class="cls-21" x="239.2" y="194.65" width="33.13" height="21.3"/><rect class="cls-21" x="225" y="215.95" width="61.54" height="80.47"/><rect class="cls-22" x="225" y="291.68" width="61.54" height="4.73"/><rect class="cls-7" x="243.93" y="201.75" width="9.47" height="14.2"/><path class="cls-11" d="M253.7,216.24H243.64V201.45H253.7Zm-9.47-.59h8.88V202h-8.88Z"/><rect class="cls-11" x="243.93" y="206.19" width="9.47" height="0.59"/><rect class="cls-11" x="243.93" y="210.92" width="9.47" height="0.59"/><rect class="cls-11" x="248.37" y="201.75" width="0.59" height="14.2"/><rect class="cls-7" x="258.13" y="201.75" width="9.47" height="14.2"/><path class="cls-11" d="M267.9,216.24H257.84V201.45H267.9Zm-9.47-.59h8.88V202h-8.88Z"/><rect class="cls-11" x="258.13" y="206.19" width="9.47" height="0.59"/><rect class="cls-11" x="258.13" y="210.92" width="9.47" height="0.59"/><rect class="cls-11" x="262.57" y="201.75" width="0.59" height="14.2"/><rect class="cls-7" x="229.73" y="223.05" width="9.47" height="14.2"/><path class="cls-11" d="M239.5,237.55H229.44v-14.8H239.5ZM230,237h8.87V223.34H230Z"/><rect class="cls-11" x="229.73" y="227.49" width="9.47" height="0.59"/><rect class="cls-11" x="229.73" y="232.22" width="9.47" height="0.59"/><rect class="cls-11" x="234.17" y="223.05" width="0.59" height="14.2"/><rect class="cls-7" x="243.93" y="223.05" width="9.47" height="14.2"/><path class="cls-11" d="M253.7,237.55H243.64v-14.8H253.7Zm-9.47-.6h8.88V223.34h-8.88Z"/><rect class="cls-11" x="243.93" y="227.49" width="9.47" height="0.59"/><rect class="cls-11" x="243.93" y="232.22" width="9.47" height="0.59"/><rect class="cls-11" x="248.37" y="223.05" width="0.59" height="14.2"/><rect class="cls-7" x="258.13" y="223.05" width="9.47" height="14.2"/><path class="cls-11" d="M267.9,237.55H257.84v-14.8H267.9Zm-9.47-.6h8.88V223.34h-8.88Z"/><rect class="cls-11" x="258.13" y="227.49" width="9.47" height="0.59"/><rect class="cls-11" x="258.13" y="232.22" width="9.47" height="0.59"/><rect class="cls-11" x="262.57" y="223.05" width="0.59" height="14.2"/><rect class="cls-7" x="272.34" y="223.05" width="9.47" height="14.2"/><path class="cls-11" d="M282.1,237.55H272v-14.8H282.1Zm-9.47-.6h8.88V223.34h-8.88Z"/><rect class="cls-11" x="272.34" y="227.49" width="9.47" height="0.59"/><rect class="cls-11" x="272.34" y="232.22" width="9.47" height="0.59"/><rect class="cls-11" x="276.77" y="223.05" width="0.59" height="14.2"/><rect class="cls-7" x="229.73" y="244.35" width="9.47" height="14.2"/><path class="cls-11" d="M239.5,258.85H229.44v-14.8H239.5Zm-9.47-.6h8.87v-13.6H230Z"/><rect class="cls-11" x="229.73" y="248.79" width="9.47" height="0.59"/><rect class="cls-11" x="229.73" y="253.52" width="9.47" height="0.59"/><rect class="cls-11" x="234.17" y="244.35" width="0.59" height="14.2"/><rect class="cls-7" x="243.93" y="244.35" width="9.47" height="14.2"/><path class="cls-11" d="M253.7,258.85H243.64v-14.8H253.7Zm-9.47-.6h8.88v-13.6h-8.88Z"/><rect class="cls-11" x="243.93" y="248.79" width="9.47" height="0.59"/><rect class="cls-11" x="243.93" y="253.52" width="9.47" height="0.59"/><rect class="cls-11" x="248.37" y="244.35" width="0.59" height="14.2"/><rect class="cls-7" x="258.13" y="244.35" width="9.47" height="14.2"/><path class="cls-11" d="M267.9,258.85H257.84v-14.8H267.9Zm-9.47-.6h8.88v-13.6h-8.88Z"/><rect class="cls-11" x="258.13" y="248.79" width="9.47" height="0.59"/><rect class="cls-11" x="258.13" y="253.52" width="9.47" height="0.59"/><rect class="cls-11" x="262.57" y="244.35" width="0.59" height="14.2"/><rect class="cls-7" x="272.34" y="244.35" width="9.47" height="14.2"/><path class="cls-11" d="M282.1,258.85H272v-14.8H282.1Zm-9.47-.6h8.88v-13.6h-8.88Z"/><rect class="cls-11" x="272.34" y="248.79" width="9.47" height="0.59"/><rect class="cls-11" x="272.34" y="253.52" width="9.47" height="0.59"/><rect class="cls-11" x="276.77" y="244.35" width="0.59" height="14.2"/><rect class="cls-7" x="272.34" y="265.65" width="9.47" height="23.67"/><path class="cls-11" d="M282.1,289.61H272V265.35H282.1Zm-9.47-.59h8.88V266h-8.88Z"/><rect class="cls-11" x="272.34" y="279.85" width="9.47" height="9.47"/><rect class="cls-11" x="272.34" y="270.09" width="9.47" height="0.59"/><rect class="cls-11" x="272.34" y="274.82" width="9.47" height="0.59"/><rect class="cls-11" x="276.77" y="265.65" width="0.59" height="14.2"/><rect class="cls-7" x="229.73" y="265.65" width="37.87" height="23.67"/><path class="cls-11" d="M267.9,289.61H229.44V265.35H267.9ZM230,289h37.28V266H230Z"/><rect class="cls-20" x="271.15" y="289.32" width="11.83" height="2.37"/><rect class="cls-20" x="269.97" y="291.68" width="14.2" height="2.37"/><rect class="cls-20" x="268.79" y="294.05" width="16.57" height="2.37"/><g class="cls-15"><polygon points="285.99 265.01 226.08 271.67 250.83 296.42 286.54 296.42 286.54 265.56 285.99 265.01"/></g><g class="cls-13"><polygon points="286.44 262.82 239.1 215.63 225.1 216.03 286.44 277.37 286.44 262.82"/></g><g class="cls-13"><polygon points="272.09 194.9 239.4 195.05 286.54 242.19 286.54 215.95 272.33 200.66 272.33 195.15 272.09 194.9"/></g><g class="cls-13"><polygon points="286.54 217.1 285.35 215.95 272.33 215.95 286.54 230.15 286.54 217.1"/></g><path class="cls-23" d="M230.92,272.16h0a1.78,1.78,0,0,0,1.77-1.78v-5.32h-3.55v5.32A1.78,1.78,0,0,0,230.92,272.16Z"/><path class="cls-24" d="M227.37,272.16h0a1.78,1.78,0,0,0,1.77-1.78v-5.32h-3.55v5.32A1.78,1.78,0,0,0,227.37,272.16Z"/><path class="cls-23" d="M238,272.16h0a1.78,1.78,0,0,0,1.77-1.78v-5.32h-3.55v5.32A1.78,1.78,0,0,0,238,272.16Z"/><path class="cls-24" d="M234.47,272.16h0a1.78,1.78,0,0,0,1.77-1.78v-5.32h-3.55v5.32A1.78,1.78,0,0,0,234.47,272.16Z"/><path class="cls-23" d="M245.12,272.16h0a1.78,1.78,0,0,0,1.77-1.78v-5.32h-3.55v5.32A1.78,1.78,0,0,0,245.12,272.16Z"/><path class="cls-24" d="M241.57,272.16h0a1.78,1.78,0,0,0,1.77-1.78v-5.32h-3.55v5.32A1.78,1.78,0,0,0,241.57,272.16Z"/><path class="cls-23" d="M252.22,272.16h0a1.78,1.78,0,0,0,1.77-1.78v-5.32h-3.55v5.32A1.78,1.78,0,0,0,252.22,272.16Z"/><path class="cls-24" d="M248.67,272.16h0a1.78,1.78,0,0,0,1.77-1.78v-5.32h-3.55v5.32A1.78,1.78,0,0,0,248.67,272.16Z"/><path class="cls-23" d="M259.32,272.16h0a1.78,1.78,0,0,0,1.77-1.78v-5.32h-3.55v5.32A1.78,1.78,0,0,0,259.32,272.16Z"/><path class="cls-24" d="M255.77,272.16h0a1.78,1.78,0,0,0,1.77-1.78v-5.32H254v5.32A1.78,1.78,0,0,0,255.77,272.16Z"/><path class="cls-23" d="M266.42,272.16h0a1.78,1.78,0,0,0,1.77-1.78v-5.32h-3.55v5.32A1.78,1.78,0,0,0,266.42,272.16Z"/><path class="cls-24" d="M262.87,272.16h0a1.78,1.78,0,0,0,1.77-1.78v-5.32h-3.55v5.32A1.78,1.78,0,0,0,262.87,272.16Z"/><path class="cls-23" d="M273.52,272.16h0a1.78,1.78,0,0,0,1.77-1.78v-5.32h-3.55v5.32A1.78,1.78,0,0,0,273.52,272.16Z"/><path class="cls-24" d="M270,272.16h0a1.78,1.78,0,0,0,1.77-1.78v-5.32h-3.55v5.32A1.78,1.78,0,0,0,270,272.16Z"/><path class="cls-24" d="M277.07,272.16h0a1.78,1.78,0,0,0,1.77-1.78v-5.32h-3.55v5.32A1.78,1.78,0,0,0,277.07,272.16Z"/><path class="cls-23" d="M280.62,272.16h0a1.78,1.78,0,0,0,1.77-1.78v-5.32h-3.55v5.32A1.78,1.78,0,0,0,280.62,272.16Z"/><path class="cls-24" d="M284.17,272.16h0a1.78,1.78,0,0,0,1.77-1.78v-5.32h-3.55v5.32A1.78,1.78,0,0,0,284.17,272.16Z"/><rect class="cls-25" x="286.54" y="191.1" width="61.54" height="24.85"/><circle class="cls-26" cx="317.3" cy="215.36" r="14.79" transform="translate(-30.31 53.41) rotate(-9.18)"/><rect class="cls-26" x="286.54" y="215.95" width="61.54" height="80.47"/><rect class="cls-27" x="286.54" y="268.02" width="61.54" height="28.4"/><rect class="cls-26" x="286.54" y="285.77" width="61.54" height="10.65"/><path class="cls-7" d="M322,216h-9.47v-4.74a4.73,4.73,0,0,1,4.73-4.73h0a4.74,4.74,0,0,1,4.74,4.73Z"/><path class="cls-25" d="M322.33,216.24H312.27v-5a5,5,0,1,1,10.06,0Zm-9.46-.59h8.87v-4.43a4.44,4.44,0,1,0-8.87,0Z"/><rect class="cls-25" x="312.57" y="210.92" width="9.47" height="0.59"/><rect class="cls-25" x="317.01" y="206.48" width="0.59" height="9.47"/><rect class="cls-7" x="333.87" y="244.35" width="9.47" height="14.2"/><path class="cls-25" d="M343.63,258.85H333.57v-14.8h10.06Zm-9.46-.6H343v-13.6h-8.87Z"/><rect class="cls-25" x="333.87" y="248.79" width="9.47" height="0.59"/><rect class="cls-25" x="338.31" y="244.35" width="0.59" height="14.2"/><rect class="cls-7" x="319.67" y="244.35" width="9.47" height="14.2"/><path class="cls-25" d="M329.43,258.85H319.37v-14.8h10.06Zm-9.46-.6h8.87v-13.6H320Z"/><rect class="cls-25" x="319.67" y="248.79" width="9.47" height="0.59"/><rect class="cls-25" x="324.11" y="244.35" width="0.59" height="14.2"/><rect class="cls-7" x="305.47" y="244.35" width="9.47" height="14.2"/><path class="cls-25" d="M315.23,258.85H305.17v-14.8h10.06Zm-9.46-.6h8.87v-13.6h-8.87Z"/><rect class="cls-25" x="305.47" y="248.79" width="9.47" height="0.59"/><rect class="cls-25" x="309.91" y="244.35" width="0.59" height="14.2"/><rect class="cls-7" x="290.68" y="244.35" width="9.47" height="14.2"/><path class="cls-25" d="M300.44,258.85H290.38v-14.8h10.06Zm-9.47-.6h8.88v-13.6H291Z"/><rect class="cls-25" x="290.68" y="248.79" width="9.47" height="0.59"/><rect class="cls-25" x="295.12" y="244.35" width="0.59" height="14.2"/><rect class="cls-7" x="333.87" y="223.05" width="9.47" height="14.2"/><path class="cls-25" d="M343.63,237.55H333.57v-14.8h10.06Zm-9.46-.6H343V223.34h-8.87Z"/><rect class="cls-25" x="333.87" y="227.49" width="9.47" height="0.59"/><rect class="cls-25" x="338.31" y="223.05" width="0.59" height="14.2"/><rect class="cls-7" x="319.67" y="223.05" width="9.47" height="14.2"/><path class="cls-25" d="M329.43,237.55H319.37v-14.8h10.06ZM320,237h8.87V223.34H320Z"/><rect class="cls-25" x="319.67" y="227.49" width="9.47" height="0.59"/><rect class="cls-25" x="324.11" y="223.05" width="0.59" height="14.2"/><rect class="cls-7" x="305.47" y="223.05" width="9.47" height="14.2"/><path class="cls-25" d="M315.23,237.55H305.17v-14.8h10.06Zm-9.46-.6h8.87V223.34h-8.87Z"/><rect class="cls-25" x="305.47" y="227.49" width="9.47" height="0.59"/><rect class="cls-25" x="309.91" y="223.05" width="0.59" height="14.2"/><rect class="cls-7" x="290.68" y="223.05" width="9.47" height="14.2"/><path class="cls-25" d="M300.44,237.55H290.38v-14.8h10.06ZM291,237h8.88V223.34H291Z"/><rect class="cls-25" x="290.68" y="227.49" width="9.47" height="0.59"/><rect class="cls-25" x="295.12" y="223.05" width="0.59" height="14.2"/><g class="cls-15"><polygon points="348.07 296.42 348.07 268.02 286.54 268.61 314.35 296.42 348.07 296.42"/></g><rect class="cls-28" x="286.54" y="263.87" width="61.54" height="4.73"/><path class="cls-25" d="M317.3,272.75h0a7.1,7.1,0,0,1,7.1,7.1v16.57H310.2V279.85A7.1,7.1,0,0,1,317.3,272.75Z"/><g class="cls-15"><path d="M317.3,272.75a7.1,7.1,0,0,0-6.91,5.51l14,14V279.85A7.1,7.1,0,0,0,317.3,272.75Z"/></g><path class="cls-29" d="M317.3,277.48h0a3.55,3.55,0,0,1,3.55,3.55v15.39h-7.1V281A3.55,3.55,0,0,1,317.3,277.48Z"/><path class="cls-25" d="M297.78,272.75h0a7.1,7.1,0,0,1,7.1,7.1v16.57h-14.2V279.85A7.1,7.1,0,0,1,297.78,272.75Z"/><g class="cls-15"><path d="M297.78,272.75a7.11,7.11,0,0,0-6.92,5.51l14,14V279.85A7.1,7.1,0,0,0,297.78,272.75Z"/></g><path class="cls-29" d="M297.78,277.48h0a3.55,3.55,0,0,1,3.55,3.55v15.39h-7.1V281A3.55,3.55,0,0,1,297.78,277.48Z"/><path class="cls-25" d="M336.24,272.75h0a7.1,7.1,0,0,1,7.1,7.1v16.57h-14.2V279.85A7.1,7.1,0,0,1,336.24,272.75Z"/><g class="cls-15"><path d="M336.24,272.75a7.11,7.11,0,0,0-6.92,5.51l14,14V279.85A7.1,7.1,0,0,0,336.24,272.75Z"/></g><path class="cls-29" d="M336.24,277.48h0a3.55,3.55,0,0,1,3.55,3.55v15.39h-7.1V281A3.55,3.55,0,0,1,336.24,277.48Z"/><g class="cls-13"><path d="M348.07,277.48V216h-16c0-.2,0-.4,0-.59a14.8,14.8,0,1,0-29.59,0c0,.19,0,.39,0,.59h-16Z"/></g><circle class="cls-4" cx="101.89" cy="267.05" r="13.24"/><g class="cls-5"><path d="M115.12,267.05a13.23,13.23,0,0,0-13.23-13.23v26.47A13.23,13.23,0,0,0,115.12,267.05Z"/></g><rect class="cls-6" x="100.9" y="263.74" width="1.99" height="32.68"/><polygon class="cls-6" points="102.55 280.04 94.78 271.76 95.74 270.85 101.23 276.69 101.23 273.1 108.06 266.57 108.98 267.53 102.55 273.66 102.55 280.04"/><circle class="cls-4" cx="225.59" cy="267.05" r="13.24"/><g class="cls-5"><path d="M238.83,267.05a13.23,13.23,0,0,0-13.24-13.23v26.47A13.24,13.24,0,0,0,238.83,267.05Z"/></g><rect class="cls-6" x="224.6" y="263.74" width="1.98" height="32.68"/><polygon class="cls-6" points="226.25 280.04 218.48 271.76 219.44 270.85 224.93 276.69 224.93 273.1 231.77 266.57 232.68 267.53 226.25 273.66 226.25 280.04"/><polygon class="cls-4" points="180.77 296.42 175.18 287.54 178.94 287.54 173.35 278.64 175.98 278.64 170.66 270.18 173.14 270.18 168.71 263.12 171.19 263.12 165.34 253.82 159.5 263.12 161.98 263.12 157.54 270.18 160.02 270.18 154.7 278.64 157.33 278.64 151.74 287.54 155.5 287.54 149.92 296.42 180.77 296.42"/><g class="cls-5"><polygon points="180.77 296.42 175.18 287.54 178.94 287.54 173.35 278.64 175.98 278.64 170.66 270.18 173.14 270.18 168.71 263.12 171.19 263.12 165.34 253.82 165.34 296.42 180.77 296.42"/></g><g class="cls-30"><path class="cls-11" d="M354.13,105.88a11.42,11.42,0,0,0-4.64,1,7.9,7.9,0,0,0-7.89-9,8.41,8.41,0,0,0-1.59.16,11.41,11.41,0,0,0-22.71.13,7.92,7.92,0,0,0-10,7.67s0,.09,0,.13a11.41,11.41,0,0,0,1.61,22.7h45.25a11.42,11.42,0,0,0,0-22.83Z"/></g><g class="cls-30"><path class="cls-11" d="M97.57,148.07a7,7,0,0,0-2.86.61,4.08,4.08,0,0,0,0-.61,4.89,4.89,0,0,0-4.89-4.89,5.25,5.25,0,0,0-1,.09,7,7,0,0,0-14,.08,5,5,0,0,0-1.29-.17,4.89,4.89,0,0,0-4.89,4.89v.08a7,7,0,0,0,1,14H97.57a7,7,0,0,0,0-14.05Z"/></g><g class="cls-30"><path class="cls-11" d="M241.56,121.57a4.47,4.47,0,0,0-1.82.39,2.56,2.56,0,0,0,0-.39,3.12,3.12,0,0,0-3.12-3.12,3.18,3.18,0,0,0-.62.06,4.48,4.48,0,0,0-8.91,0,3.11,3.11,0,0,0-3.93,3v.05a4.47,4.47,0,0,0,.63,8.9h17.74a4.48,4.48,0,1,0,0-9Z"/></g><polygon class="cls-31" points="292.36 261.7 289.37 261.7 287.53 255.25 294.2 255.25 292.36 261.7"/><polygon class="cls-32" points="292.59 253.06 289.13 253.06 287 255.25 294.72 255.25 292.59 253.06"/><polygon class="cls-32" points="292.04 284.56 289.68 284.56 288.23 286.05 293.5 286.05 292.04 284.56"/><polygon class="cls-32" points="292.38 285.67 289.35 285.67 287.48 296.42 294.25 296.42 292.38 285.67"/><polygon class="cls-32" points="289.91 262 291.82 262 292.99 261.39 288.73 261.39 289.91 262"/><rect class="cls-32" x="290.45" y="250.45" width="0.83" height="3.34"/><rect class="cls-32" x="290.45" y="262" width="0.83" height="3.34"/><rect class="cls-32" x="290.03" y="263.06" width="1.67" height="21.9"/><path class="cls-32" d="M291.93,250.15a1.07,1.07,0,1,1-1.07-1.07A1.07,1.07,0,0,1,291.93,250.15Z"/><g class="cls-13"><polygon points="292.6 260.85 294.2 255.25 287.53 255.25 287.74 255.98 292.6 260.85"/></g><g class="cls-5"><polygon points="292.45 286.05 293.5 286.05 292.04 284.56 291.7 284.56 291.7 263.06 291.28 263.06 291.28 262 291.82 262 292.99 261.39 290.86 261.39 290.86 296.42 294.25 296.42 292.45 286.05"/></g><g class="cls-5"><path d="M294.72,255.25l-2.13-2.19h-1.31v-1.92a1.07,1.07,0,0,0-.42-2.06v6.17Z"/></g><polygon class="cls-31" points="81.28 261.7 78.29 261.7 76.45 255.25 83.12 255.25 81.28 261.7"/><polygon class="cls-32" points="81.51 253.06 78.05 253.06 75.92 255.25 83.64 255.25 81.51 253.06"/><polygon class="cls-32" points="80.96 284.56 78.6 284.56 77.15 286.05 82.42 286.05 80.96 284.56"/><polygon class="cls-32" points="81.3 285.67 78.27 285.67 76.4 296.42 83.17 296.42 81.3 285.67"/><polygon class="cls-32" points="78.83 262 80.74 262 81.91 261.39 77.65 261.39 78.83 262"/><rect class="cls-32" x="79.36" y="250.45" width="0.83" height="3.34"/><rect class="cls-32" x="79.36" y="262" width="0.83" height="3.34"/><rect class="cls-32" x="78.95" y="263.06" width="1.67" height="21.9"/><circle class="cls-32" cx="79.78" cy="250.15" r="1.07"/><g class="cls-13"><polygon points="81.52 260.85 83.12 255.25 76.45 255.25 76.66 255.98 81.52 260.85"/></g><g class="cls-5"><polygon points="81.36 286.05 82.42 286.05 80.96 284.56 80.62 284.56 80.62 263.06 80.2 263.06 80.2 262 80.74 262 81.91 261.39 79.78 261.39 79.78 296.42 83.17 296.42 81.36 286.05"/></g><g class="cls-5"><path d="M83.64,255.25l-2.13-2.19H80.2v-1.92a1.07,1.07,0,0,0-.42-2.06v6.17Z"/></g><g class="cls-5"><polygon points="363.97 296.42 360.25 290.5 362.76 290.5 359.03 284.57 360.78 284.57 357.24 278.92 358.89 278.92 355.94 274.22 357.59 274.22 353.69 268.02 349.8 274.22 351.45 274.22 348.49 278.92 350.14 278.92 346.6 284.57 348.35 284.57 344.63 290.5 347.13 290.5 343.41 296.42 363.97 296.42"/><circle cx="63.6" cy="276.84" r="8.82"/><circle cx="381.74" cy="268.79" r="14.97" transform="translate(32.8 578.96) rotate(-76.78)"/><rect x="35.66" y="291.68" width="378.68" height="4.73"/><rect x="35.66" y="296.42" width="378.68" height="4.73"/><polygon points="101.93 191.1 101.93 215.95 101.93 262.1 101.93 285.77 101.93 296.42 120.27 296.42 127.37 296.42 138.02 296.42 145.12 296.42 163.46 296.42 163.46 285.77 163.46 277.48 163.46 262.1 163.46 215.95 163.46 191.1 101.93 191.1"/><polygon points="206.07 193.46 182.4 193.46 163.46 211.22 163.46 215.95 163.46 285.77 163.46 296.42 182.4 296.42 206.07 296.42 225 296.42 225 296.42 225 285.77 225 282.24 225 277.48 225 258.55 225 240.8 225 234.88 225 217.13 225 215.95 225 215.95 225 211.22 206.07 193.46"/><polygon points="272.33 200.66 272.33 195.15 272.33 194.65 266.76 194.65 255.77 182.81 244.78 194.65 239.2 194.65 239.2 200.66 225 215.95 225 291.68 225 296.42 268.79 296.42 285.35 296.42 286.54 296.42 286.54 296.42 286.54 291.68 286.54 265.56 286.54 242.19 286.54 230.15 286.54 217.1 286.54 215.95 272.33 200.66"/><polygon points="286.54 191.1 286.54 215.95 286.54 263.88 286.54 268.02 286.54 268.61 286.54 285.77 286.54 296.42 290.68 296.42 294.23 296.42 301.33 296.42 304.88 296.42 310.2 296.42 313.75 296.42 314.35 296.42 320.85 296.42 324.4 296.42 329.14 296.42 332.69 296.42 339.79 296.42 343.34 296.42 348.07 296.42 348.07 285.77 348.07 277.48 348.07 268.61 348.07 268.02 348.07 263.88 348.07 215.95 348.07 215.95 348.07 191.1 286.54 191.1"/><circle cx="101.89" cy="267.05" r="13.24"/><circle cx="225.59" cy="267.05" r="13.24"/><polygon points="180.77 296.42 175.18 287.54 178.94 287.54 173.35 278.64 175.98 278.64 170.66 270.18 173.14 270.18 168.71 263.12 171.19 263.12 165.34 253.82 159.5 263.12 161.98 263.12 157.54 270.18 160.02 270.18 154.7 278.64 157.33 278.64 151.74 287.54 155.5 287.54 149.92 296.42 180.77 296.42"/><polygon points="292.59 253.06 289.13 253.06 287 255.25 294.72 255.25 292.59 253.06"/><polygon points="292.04 284.56 289.68 284.56 288.23 286.05 293.5 286.05 292.04 284.56"/><polygon points="292.38 285.67 289.35 285.67 287.48 296.42 294.25 296.42 292.38 285.67"/><polygon points="289.91 262 291.82 262 292.99 261.39 288.73 261.39 289.91 262"/><rect x="290.45" y="250.45" width="0.83" height="3.34"/><rect x="290.45" y="262" width="0.83" height="3.34"/><rect x="290.03" y="263.06" width="1.67" height="21.9"/><path d="M291.93,250.15a1.07,1.07,0,1,1-1.07-1.07A1.07,1.07,0,0,1,291.93,250.15Z"/><polygon points="292.45 286.05 293.5 286.05 292.04 284.56 291.7 284.56 291.7 263.06 291.28 263.06 291.28 262 291.82 262 292.99 261.39 290.86 261.39 290.86 296.42 294.25 296.42 292.45 286.05"/><path d="M294.72,255.25l-2.13-2.19h-1.31v-1.92a1.07,1.07,0,0,0-.42-2.06v6.17Z"/><polygon points="81.51 253.06 78.05 253.06 75.92 255.25 83.64 255.25 81.51 253.06"/><polygon points="80.96 284.56 78.6 284.56 77.15 286.05 82.42 286.05 80.96 284.56"/><polygon points="81.3 285.67 78.27 285.67 76.4 296.42 83.17 296.42 81.3 285.67"/><polygon points="78.83 262 80.74 262 81.91 261.39 77.65 261.39 78.83 262"/><rect x="79.36" y="250.45" width="0.83" height="3.34"/><rect x="79.36" y="262" width="0.83" height="3.34"/><rect x="78.95" y="263.06" width="1.67" height="21.9"/><circle cx="79.78" cy="250.15" r="1.07"/><polygon points="67.8 276.84 63.16 281.06 63.16 284.38 58.85 279.68 67.8 276.84"/><polygon points="374.24 268.79 381.74 275.94 381.74 281.58 389.24 273.6 374.24 268.79"/><polygon points="108.52 267.05 101.89 273.38 101.89 278.37 95.26 271.31 108.52 267.05"/><polygon points="232.22 267.05 225.59 273.38 225.59 278.37 218.96 271.31 232.22 267.05"/></g><polygon class="cls-31" points="292.36 261.7 289.37 261.7 287.53 255.25 294.2 255.25 292.36 261.7"/><g class="cls-13"><polygon points="292.6 260.85 294.2 255.25 287.53 255.25 287.74 255.98 292.6 260.85"/></g><polygon class="cls-31" points="81.28 261.7 78.29 261.7 76.45 255.25 83.12 255.25 81.28 261.7"/><g class="cls-33"><polygon class="cls-31" points="81.28 261.7 78.29 261.7 52.78 301.15 106.78 301.15 81.28 261.7"/></g><g class="cls-34"><polygon class="cls-31" points="300.14 237.25 290.68 237.56 268.41 301.15 322.41 301.15 300.14 237.25"/></g><g class="cls-33"><polygon class="cls-31" points="292.36 261.7 289.37 261.7 263.86 301.15 317.87 301.15 292.36 261.7"/></g><g class="cls-13"><polygon points="81.52 260.85 83.12 255.25 76.45 255.25 76.66 255.98 81.52 260.85"/></g><path class="cls-31" d="M130.33,237.25h-9.47v-9.47a4.74,4.74,0,0,1,4.74-4.73h0a4.73,4.73,0,0,1,4.73,4.73Z"/><path class="cls-35" d="M130.63,237.55H120.57v-9.77a5,5,0,0,1,10.06,0Zm-9.47-.6H130v-9.17a4.44,4.44,0,1,0-8.87,0Z"/><rect class="cls-35" x="120.86" y="227.49" width="9.47" height="0.59"/><rect class="cls-35" x="120.86" y="232.22" width="9.47" height="0.59"/><rect class="cls-35" x="125.3" y="223.05" width="0.59" height="14.2"/><rect class="cls-31" x="333.87" y="244.35" width="9.47" height="14.2"/><rect class="cls-25" x="333.87" y="248.79" width="9.47" height="0.59"/><rect class="cls-25" x="338.31" y="244.35" width="0.59" height="14.2"/><rect class="cls-31" x="290.68" y="223.05" width="9.47" height="14.2"/><rect class="cls-25" x="290.68" y="227.49" width="9.47" height="0.59"/><rect class="cls-25" x="295.12" y="223.05" width="0.59" height="14.2"/><path class="cls-31" d="M322,216h-9.47v-4.74a4.73,4.73,0,0,1,4.73-4.73h0a4.74,4.74,0,0,1,4.74,4.73Z"/><rect class="cls-25" x="312.57" y="210.92" width="9.47" height="0.59"/><rect class="cls-25" x="317.01" y="206.48" width="0.59" height="9.47"/><rect class="cls-31" x="258.13" y="244.35" width="9.47" height="14.2"/><path class="cls-36" d="M267.9,258.85H257.84v-14.8H267.9Zm-9.47-.6h8.88v-13.6h-8.88Z"/><rect class="cls-36" x="258.13" y="248.79" width="9.47" height="0.59"/><rect class="cls-36" x="258.13" y="253.52" width="9.47" height="0.59"/><rect class="cls-36" x="262.57" y="244.35" width="0.59" height="14.2"/><path class="cls-31" d="M212.36,267.05a13,13,0,0,1,.16-2h-1.91v14.2h9.47v-.19A13.23,13.23,0,0,1,212.36,267.05Z"/><polygon class="cls-17" points="220.38 279.56 210.32 279.56 210.32 264.76 212.52 264.76 212.52 265.36 210.91 265.36 210.91 278.96 220.08 278.96 220.08 279.08 220.38 279.08 220.38 279.56"/><rect class="cls-17" x="210.8" y="274.91" width="4.55" height="0.41"/><rect class="cls-31" x="182.4" y="223.05" width="9.47" height="14.2"/><rect class="cls-17" x="182.4" y="232.22" width="9.47" height="0.59"/><path class="cls-37" d="M261.84,90.83a1.78,1.78,0,1,1-1.78-1.77A1.78,1.78,0,0,1,261.84,90.83Z"/><circle class="cls-37" cx="358.83" cy="149.56" r="1.78"/><circle class="cls-37" cx="167.61" cy="149.56" r="1.78"/><path class="cls-37" d="M365.11,84.33a1.78,1.78,0,1,1-1.77-1.78A1.77,1.77,0,0,1,365.11,84.33Z"/><path class="cls-37" d="M69.57,86.1a1.78,1.78,0,1,1-1.77-1.77A1.78,1.78,0,0,1,69.57,86.1Z"/><path class="cls-38" d="M162.87,120.26A23.64,23.64,0,0,1,141.68,86.1a23.66,23.66,0,1,0,26.41,33.56A23.59,23.59,0,0,1,162.87,120.26Z"/></g></g></svg>